<svg fill="none" height="100%" width="100%" viewBox="0 0 300 250" xmlns:xlink="http://www.w3.org/1999/xlink" xmlns="http://www.w3.org/2000/svg"><defs><clipPath id="i0"><rect height="250" width="300" y="0" x="0" /></clipPath><g id="i1"><g transform="matrix(1,0,0,1,82.338,25.613)" id="i2"><g id="i3" transform="matrix(1,0,0,1,29.017,30.848)"><path stroke-width="1.887" stroke="#000000" fill="#666666" d="M25.934,28.962C25.934,28.962,26.848,28.962,26.848,28.962C26.848,28.962,26.876,28.047,26.876,28.047C27.114,20.297,27.131,1.934,25.255,-9.321C25.068,-10.446,24.894,-11.49,24.733,-12.459C23.905,-17.457,23.411,-20.442,22.962,-22.21C22.699,-23.248,22.415,-24.031,21.982,-24.561C21.471,-25.184,20.852,-25.352,20.279,-25.412C19.837,-25.458,19.427,-25.308,19.12,-25.153C18.795,-24.989,18.465,-24.759,18.146,-24.501C17.507,-23.985,16.808,-23.276,16.124,-22.515C15.027,-21.292,13.913,-19.865,13.064,-18.71C11.183,-20.054,7.543,-21.833,3.035,-21.766C-1.085,-21.704,-4.297,-20.664,-6.104,-19.793C-6.579,-21.356,-7.293,-23.274,-8.189,-24.926C-8.755,-25.97,-9.422,-26.96,-10.187,-27.685C-10.947,-28.407,-11.91,-28.962,-13.033,-28.878C-13.589,-28.836,-14.033,-28.519,-14.357,-28.203C-14.694,-27.873,-15.009,-27.437,-15.303,-26.946C-15.895,-25.96,-16.496,-24.599,-17.096,-23.003C-18.3,-19.802,-19.554,-15.497,-20.721,-10.97C-23.056,-1.913,-25.076,8.164,-25.691,12.372C-26.671,19.081,-27.042,25.57,-27.105,27.994C-27.105,27.994,-27.13,28.962,-27.13,28.962C-27.13,28.962,-26.163,28.962,-26.163,28.962C-26.163,28.962,25.934,28.962,25.934,28.962Z" /></g><g id="i4" transform="matrix(1,0,0,1,17.159,10.945)"><path fill="#9b999a" d="M-1.074,-4.729C-2.096,-4.707,-3.312,0.499,-3.792,3.099C-3.411,4.756,2.814,2.528,3.303,1.631C3.792,0.734,0.204,-4.756,-1.074,-4.729Z" /></g><g id="i5" transform="matrix(1,0,0,1,47.465,14.09)"><path fill="#9b999a" d="M1.04,-4.576C2.029,-4.555,3.205,0.482,3.669,2.998C3.301,4.602,-2.721,2.446,-3.195,1.578C-3.668,0.71,-0.197,-4.602,1.04,-4.576Z" /></g><g id="i6" transform="matrix(1,0,0,1,32.047,13.794)"><path fill="#f3f3f3" fill-rule="evenodd" d="M3.583,-3.417C4.944,-3.129,6.159,-2.691,7.182,-2.215C7.182,-2.215,6.692,2.027,6.692,2.027C6.574,3.045,5.652,3.776,4.633,3.659C3.614,3.541,2.885,2.62,3.003,1.6C3.003,1.6,3.57,-3.32,3.57,-3.32C3.574,-3.353,3.578,-3.385,3.583,-3.417ZM-2.064,-3.648C-1.402,-3.715,-0.707,-3.757,0.018,-3.768C0.576,-3.776,1.121,-3.755,1.649,-3.708C1.65,-3.679,1.652,-3.649,1.652,-3.62C1.652,-3.62,1.652,1.333,1.652,1.333C1.652,2.359,0.819,3.19,-0.206,3.19C-1.232,3.19,-2.064,2.359,-2.064,1.333C-2.064,1.333,-2.064,-3.62,-2.064,-3.62C-2.064,-3.62,-2.064,-3.648,-2.064,-3.648ZM-7.182,-2.526C-6.169,-2.885,-4.918,-3.229,-3.469,-3.464C-3.468,-3.431,-3.467,-3.398,-3.467,-3.364C-3.467,-3.364,-3.467,1.589,-3.467,1.589C-3.467,2.615,-4.299,3.446,-5.325,3.446C-6.35,3.446,-7.182,2.615,-7.182,1.589C-7.182,1.589,-7.182,-2.526,-7.182,-2.526Z" /></g></g><g transform="matrix(1,0,0,1,98.297,47.814)" id="i7"><g id="i5" transform="matrix(1,0,0,1,3.147,3.148)"><path fill="#000000" d="M-0.001,-2.898C1.6,-2.898,2.898,-1.601,2.898,-0.001C2.898,1.6,1.6,2.898,-0.001,2.898C-1.601,2.898,-2.898,1.6,-2.898,-0.001C-2.898,-1.601,-1.601,-2.898,-0.001,-2.898Z" /></g><g id="i6" transform="matrix(1,0,0,1,3.782,2.046)"><path fill="#c4c4c4" d="M0,-1.101C0.608,-1.101,1.101,-0.608,1.101,0C1.101,0.608,0.608,1.101,0,1.101C-0.608,1.101,-1.101,0.608,-1.101,0C-1.101,-0.608,-0.608,-1.101,0,-1.101Z" /></g></g><g transform="matrix(1,0,0,1,121.317,49.496)" id="i8"><g id="i5" transform="matrix(1,0,0,1,3.147,3.148)"><path fill="#000000" d="M-0.001,-2.898C1.6,-2.898,2.898,-1.6,2.898,0.001C2.898,1.601,1.6,2.898,-0.001,2.898C-1.601,2.898,-2.898,1.601,-2.898,0.001C-2.898,-1.6,-1.601,-2.898,-0.001,-2.898Z" /></g><g id="i6" transform="matrix(1,0,0,1,4.247,2.047)"><path fill="#c4c4c4" d="M0,-1.101C0.608,-1.101,1.101,-0.608,1.101,0C1.101,0.608,0.608,1.101,0,1.101C-0.608,1.101,-1.101,0.608,-1.101,0C-1.101,-0.608,-0.608,-1.101,0,-1.101Z" /></g></g><g transform="matrix(1,0,0,1,109.125,51.261)" id="i9"><g id="i6" transform="matrix(1,0,0,1,4.219,2.597)"><path stroke-linejoin="round" stroke-linecap="round" stroke-width="0.915" stroke="#000000" d="M-3.214,-1.682C-3.304,-0.56,-3.123,1.682,-1.682,1.682C-0.24,1.682,0.02,-0.22,-0.03,-1.171C-0.1,-0.22,0.15,1.682,1.712,1.682C3.274,1.682,3.304,-0.44,3.123,-1.501" /></g></g></g><g id="i10"><g transform="matrix(1,0,0,1,32.605,165.412)" visibility="visible" id="i11"><animate repeatCount="indefinite" begin="0s" calcMode="discrete" dur="4s" values="visible; hidden; hidden" keyTimes="0; 0.817; 1" attributeName="visibility" /><g id="i4" transform="matrix(1,0,0,1,116.782,40.957)"><path fill="#dddddd" d="M-88.467,-21.426C-85.967,-24.687,-82.093,-26.597,-77.985,-26.597C-77.985,-26.597,76.076,-26.597,76.076,-26.597C80,-26.597,83.721,-24.853,86.231,-21.835C86.231,-21.835,108.505,4.94,108.505,4.94C115.664,13.547,109.544,26.597,98.35,26.597C98.35,26.597,-98.518,26.597,-98.518,26.597C-109.469,26.597,-115.664,14.04,-109.001,5.35C-109.001,5.35,-88.467,-21.426,-88.467,-21.426Z" /></g><g id="i5" transform="matrix(1,0,0,1,116.804,34.083)"><path stroke-width="1.887" stroke="#000000" fill="#ffffff" d="M-77.879,-26.534C-77.879,-26.534,75.924,-26.534,75.924,-26.534C79.636,-26.534,83.149,-24.852,85.477,-21.96C85.477,-21.96,108.455,6.575,108.455,6.575C114.917,14.6,109.205,26.534,98.902,26.534C98.902,26.534,-99.061,26.534,-99.061,26.534C-109.14,26.534,-114.918,15.05,-108.91,6.956C-108.91,6.956,-87.728,-21.579,-87.728,-21.579C-85.414,-24.697,-81.761,-26.534,-77.879,-26.534Z" /></g><g id="i6" transform="matrix(1,0,0,1,116.776,27.542)"><path stroke-width="1.887" stroke="#000000" fill="#ffffff" d="M-77.979,-25.655C-77.979,-25.655,76.082,-25.655,76.082,-25.655C79.727,-25.655,83.181,-24.034,85.512,-21.233C85.512,-21.233,107.786,5.544,107.786,5.544C114.434,13.535,108.75,25.655,98.356,25.655C98.356,25.655,-98.512,25.655,-98.512,25.655C-108.681,25.655,-114.434,13.993,-108.246,5.924C-108.246,5.924,-87.712,-20.853,-87.712,-20.853C-85.391,-23.88,-81.793,-25.655,-77.979,-25.655Z" /></g></g><g transform="matrix(1,0,0,1,72.279,64.83)" visibility="visible" id="i12"><animate repeatCount="indefinite" begin="0s" calcMode="discrete" dur="4s" values="visible; hidden; hidden" keyTimes="0; 0.817; 1" attributeName="visibility" /><g id="i13" transform="matrix(1,0,0,1,77.722,51.756)"><path fill="#dddddd" d="M-63.569,-46.812C-63.569,-46.812,63.568,-46.812,63.568,-46.812C70.864,-46.812,76.778,-40.899,76.778,-33.604C76.778,-33.604,76.778,33.604,76.778,33.604C76.778,40.898,70.864,46.812,63.568,46.812C63.568,46.812,-63.569,46.812,-63.569,46.812C-70.864,46.812,-76.778,40.898,-76.778,33.604C-76.778,33.604,-76.778,-33.604,-76.778,-33.604C-76.778,-40.899,-70.864,-46.812,-63.569,-46.812Z" /></g><g id="i14" transform="matrix(1,0,0,1,77.721,47.756)"><path stroke-width="1.887" stroke="#000000" fill="#ffffff" d="M-63.568,-45.869C-63.568,-45.869,63.568,-45.869,63.568,-45.869C70.342,-45.869,75.835,-40.377,75.835,-33.603C75.835,-33.603,75.835,33.603,75.835,33.603C75.835,40.378,70.342,45.869,63.568,45.869C63.568,45.869,-63.568,45.869,-63.568,45.869C-70.342,45.869,-75.835,40.378,-75.835,33.603C-75.835,33.603,-75.835,-33.603,-75.835,-33.603C-75.835,-40.377,-70.342,-45.869,-63.568,-45.869Z" /></g><g id="i3" transform="matrix(1,0,0,1,77.722,47.423)"><path fill="#333333" d="M-57.999,-35.868C-57.999,-35.868,58,-35.868,58,-35.868C62.566,-35.868,66.268,-32.166,66.268,-27.599C66.268,-27.599,66.268,27.6,66.268,27.6C66.268,32.167,62.566,35.868,58,35.868C58,35.868,-57.999,35.868,-57.999,35.868C-62.565,35.868,-66.268,32.167,-66.268,27.6C-66.268,27.6,-66.268,-27.599,-66.268,-27.599C-66.268,-32.166,-62.565,-35.868,-57.999,-35.868Z" /></g><g id="i4" transform="matrix(1,0,0,1,119.661,16.848)"><path fill="#3dd598" d="M0.001,-2.802C1.548,-2.802,2.801,-1.547,2.801,0.001C2.801,1.548,1.548,2.802,0.001,2.802C-1.547,2.802,-2.801,1.548,-2.801,0.001C-2.801,-1.547,-1.547,-2.802,0.001,-2.802Z" /></g><g id="i5" transform="matrix(1,0,0,1,127.662,16.848)"><path fill="#ffcf0f" d="M0.001,-2.802C1.548,-2.802,2.801,-1.547,2.801,0.001C2.801,1.548,1.548,2.802,0.001,2.802C-1.547,2.802,-2.801,1.548,-2.801,0.001C-2.801,-1.547,-1.547,-2.802,0.001,-2.802Z" /></g><g id="i6" transform="matrix(1,0,0,1,135.662,16.848)"><path fill="#fc5a5a" d="M0.001,-2.802C1.548,-2.802,2.801,-1.547,2.801,0.001C2.801,1.548,1.548,2.802,0.001,2.802C-1.547,2.802,-2.801,1.548,-2.801,0.001C-2.801,-1.547,-1.547,-2.802,0.001,-2.802Z" /></g></g><g visibility="visible" id="i15"><animate repeatCount="indefinite" begin="0s" calcMode="discrete" dur="4s" values="visible; hidden; hidden" keyTimes="0; 0.817; 1" attributeName="visibility" /><g transform="translate(114.292,114.21)"><g transform="scale(0,1)"><animateTransform repeatCount="indefinite" type="scale" attributeName="transform" dur="4s" begin="0s" calcMode="spline" values="0 1; 0 1; 1 1; 1 1" keyTimes="0; 0.558333; 0.604167; 1" keySplines="0 0 1 1; 0 0 1 1; 0 0 1 1" fill="freeze" /><g transform="translate(-0.488,-2.473)"><g id="i6" transform="matrix(1,0,0,1,9.738,2.348)"><path fill="#3dd598" d="M-7.391,-2.098C-7.391,-2.098,7.391,-2.098,7.391,-2.098C8.549,-2.098,9.488,-1.158,9.488,0.001C9.488,1.159,8.549,2.098,7.391,2.098C7.391,2.098,-7.391,2.098,-7.391,2.098C-8.549,2.098,-9.488,1.159,-9.488,0.001C-9.488,-1.158,-8.549,-2.098,-7.391,-2.098Z" /></g></g></g></g></g><g visibility="visible" id="i16"><animate repeatCount="indefinite" begin="0s" calcMode="discrete" dur="4s" values="visible; hidden; hidden" keyTimes="0; 0.817; 1" attributeName="visibility" /><g transform="translate(92.243,114.085)"><g transform="scale(0,1)"><animateTransform repeatCount="indefinite" type="scale" attributeName="transform" dur="4s" begin="0s" calcMode="spline" values="0 1; 0 1; 1 1; 1 1" keyTimes="0; 0.466667; 0.5125; 1" keySplines="0 0 1 1; 0 0 1 1; 0 0 1 1" fill="freeze" /><g transform="translate(-0.364,-2.348)"><g id="i6" transform="matrix(1,0,0,1,9.739,2.348)"><path fill="#3dd598" d="M-7.391,-2.098C-7.391,-2.098,7.391,-2.098,7.391,-2.098C8.549,-2.098,9.488,-1.158,9.488,0.001C9.488,1.159,8.549,2.098,7.391,2.098C7.391,2.098,-7.391,2.098,-7.391,2.098C-8.549,2.098,-9.488,1.159,-9.488,0.001C-9.488,-1.158,-8.549,-2.098,-7.391,-2.098Z" /></g></g></g></g></g><g visibility="visible" id="i17"><animate repeatCount="indefinite" begin="0s" calcMode="discrete" dur="4s" values="visible; hidden; hidden" keyTimes="0; 0.817; 1" attributeName="visibility" /><g transform="translate(103.015,103.892)"><g transform="scale(0,1)"><animateTransform repeatCount="indefinite" type="scale" attributeName="transform" dur="4s" begin="0s" calcMode="spline" values="0 1; 0 1; 1 1; 1 1" keyTimes="0; 0.366667; 0.4125; 1" keySplines="0 0 1 1; 0 0 1 1; 0 0 1 1" fill="freeze" /><g transform="translate(-0.271,-2.347)"><g id="i6" transform="matrix(1,0,0,1,25.709,2.347)"><path fill="#3dd598" d="M-23.361,-2.097C-23.361,-2.097,23.361,-2.097,23.361,-2.097C24.519,-2.097,25.458,-1.158,25.458,0C25.458,1.158,24.519,2.097,23.361,2.097C23.361,2.097,-23.361,2.097,-23.361,2.097C-24.519,2.097,-25.458,1.158,-25.458,0C-25.458,-1.158,-24.519,-2.097,-23.361,-2.097Z" /></g></g></g></g></g><g visibility="visible" id="i18"><animate repeatCount="indefinite" begin="0s" calcMode="discrete" dur="4s" values="visible; hidden; hidden" keyTimes="0; 0.817; 1" attributeName="visibility" /><g transform="translate(92.233,103.892)"><g transform="scale(0,1)"><animateTransform repeatCount="indefinite" type="scale" attributeName="transform" dur="4s" begin="0s" calcMode="spline" values="0 1; 0 1; 1 1; 1 1" keyTimes="0; 0.266667; 0.3125; 1" keySplines="0 0 1 1; 0 0 1 1; 0 0 1 1" fill="freeze" /><g transform="translate(-0.353,-2.347)"><g id="i6" transform="matrix(1,0,0,1,4.478,2.347)"><path fill="#3dd598" d="M-2.131,-2.097C-2.131,-2.097,2.131,-2.097,2.131,-2.097C3.289,-2.097,4.228,-1.158,4.228,0C4.228,1.158,3.289,2.097,2.131,2.097C2.131,2.097,-2.131,2.097,-2.131,2.097C-3.289,2.097,-4.228,1.158,-4.228,0C-4.228,-1.158,-3.289,-2.097,-2.131,-2.097Z" /></g></g></g></g></g><g visibility="visible" id="i19"><animate repeatCount="indefinite" begin="0s" calcMode="discrete" dur="4s" values="visible; hidden; hidden" keyTimes="0; 0.817; 1" attributeName="visibility" /><g transform="translate(117.958,95.384)"><g transform="scale(0,1)"><animateTransform repeatCount="indefinite" type="scale" attributeName="transform" dur="4s" begin="0s" calcMode="spline" values="0 1; 0 1; 1 1; 1 1" keyTimes="0; 0.166667; 0.2125; 1" keySplines="0 0 1 1; 0 0 1 1; 0 0 1 1" fill="freeze" /><g transform="translate(-0.271,-2.472)"><g id="i6" transform="matrix(1,0,0,1,25.708,2.347)"><path fill="#3dd598" d="M-23.361,-2.097C-23.361,-2.097,23.36,-2.097,23.36,-2.097C24.518,-2.097,25.458,-1.158,25.458,0C25.458,1.158,24.518,2.097,23.36,2.097C23.36,2.097,-23.361,2.097,-23.361,2.097C-24.519,2.097,-25.458,1.158,-25.458,0C-25.458,-1.158,-24.519,-2.097,-23.361,-2.097Z" /></g></g></g></g></g><g visibility="visible" id="i20"><animate repeatCount="indefinite" begin="0s" calcMode="discrete" dur="4s" values="visible; hidden; hidden" keyTimes="0; 0.817; 1" attributeName="visibility" /><g transform="translate(107.546,95.259)"><g transform="scale(0,1)"><animateTransform repeatCount="indefinite" type="scale" attributeName="transform" dur="4s" begin="0s" calcMode="spline" values="0 1; 0 1; 1 1; 1 1" keyTimes="0; 0.0625; 0.108333; 1" keySplines="0 0 1 1; 0 0 1 1; 0 0 1 1" fill="freeze" /><g transform="translate(-0.728,-2.347)"><g id="i6" transform="matrix(1,0,0,1,4.478,2.347)"><path fill="#3dd598" d="M-2.131,-2.097C-2.131,-2.097,2.131,-2.097,2.131,-2.097C3.289,-2.097,4.228,-1.158,4.228,0C4.228,1.158,3.289,2.097,2.131,2.097C2.131,2.097,-2.131,2.097,-2.131,2.097C-3.289,2.097,-4.228,1.158,-4.228,0C-4.228,-1.158,-3.289,-2.097,-2.131,-2.097Z" /></g></g></g></g></g><g visibility="visible" id="i21"><animate repeatCount="indefinite" begin="0s" calcMode="discrete" dur="4s" values="visible; hidden; hidden" keyTimes="0; 0.817; 1" attributeName="visibility" /><g transform="translate(92.171,95.384)"><g transform="scale(0,1)"><animateTransform repeatCount="indefinite" type="scale" attributeName="transform" dur="4s" begin="0s" calcMode="spline" values="0 1; 1 1; 1 1" keyTimes="0; 0.045833; 1" keySplines="0 0 1 1; 0 0 1 1" fill="freeze" /><g transform="translate(-0.291,-2.472)"><g id="i6" transform="matrix(1,0,0,1,6.666,2.347)"><path fill="#3dd598" d="M-4.319,-2.097C-4.319,-2.097,4.319,-2.097,4.319,-2.097C5.477,-2.097,6.416,-1.158,6.416,0C6.416,1.158,5.477,2.097,4.319,2.097C4.319,2.097,-4.319,2.097,-4.319,2.097C-5.477,2.097,-6.416,1.158,-6.416,0C-6.416,-1.158,-5.477,-2.097,-4.319,-2.097Z" /></g></g></g></g></g><g transform="matrix(1,0,0,1,47.843,170.857)" visibility="visible" id="i22"><animate repeatCount="indefinite" begin="0s" calcMode="discrete" dur="4s" values="visible; hidden; hidden" keyTimes="0; 0.817; 1" attributeName="visibility" /><g id="i23" transform="matrix(1,0,0,1,34.596,2.309)"><path fill="#00b5ce" d="M-7.266,-0.47C-6.272,-1.487,-4.913,-2.059,-3.492,-2.059C-3.492,-2.059,7.232,-2.059,7.232,-2.059C8.167,-2.059,8.639,-0.934,7.986,-0.266C7.986,-0.266,7.266,0.47,7.266,0.47C6.273,1.487,4.913,2.059,3.492,2.059C3.492,2.059,-7.23,2.059,-7.23,2.059C-8.165,2.059,-8.639,0.934,-7.986,0.266C-7.986,0.266,-7.266,-0.47,-7.266,-0.47Z" /></g><g id="i24" transform="matrix(1,0,0,1,130.801,2.309)"><path fill="#00b5ce" d="M7.267,-0.47C6.274,-1.487,4.912,-2.059,3.491,-2.059C3.491,-2.059,-7.231,-2.059,-7.231,-2.059C-8.167,-2.059,-8.64,-0.934,-7.986,-0.266C-7.986,-0.266,-7.266,0.47,-7.266,0.47C-6.273,1.487,-4.912,2.059,-3.491,2.059C-3.491,2.059,7.232,2.059,7.232,2.059C8.165,2.059,8.64,0.934,7.987,0.266C7.987,0.266,7.267,-0.47,7.267,-0.47Z" /></g><g id="i25" transform="matrix(1,0,0,1,48.453,25.359)"><path fill="#00b5ce" d="M-10.945,-2.935C-10.608,-3.776,-9.792,-4.327,-8.885,-4.327C-8.885,-4.327,10.577,-4.327,10.577,-4.327C12.147,-4.327,13.221,-2.742,12.637,-1.285C12.637,-1.285,10.945,2.935,10.945,2.935C10.608,3.776,9.793,4.327,8.887,4.327C8.887,4.327,-10.577,4.327,-10.577,4.327C-12.147,4.327,-13.22,2.741,-12.635,1.284C-12.635,1.284,-10.945,-2.935,-10.945,-2.935Z" /></g><g id="i26" transform="matrix(1,0,0,1,29.89,35.509)"><path fill="#00b5ce" d="M-10.456,-3.147C-10.072,-3.873,-9.317,-4.327,-8.496,-4.327C-8.496,-4.327,10.729,-4.327,10.729,-4.327C12.399,-4.327,13.47,-2.548,12.689,-1.072C12.689,-1.072,10.457,3.146,10.457,3.146C10.072,3.873,9.318,4.327,8.497,4.327C8.497,4.327,-10.728,4.327,-10.728,4.327C-12.399,4.327,-13.47,2.548,-12.688,1.071C-12.688,1.071,-10.456,-3.147,-10.456,-3.147Z" /></g><g id="i27" transform="matrix(1,0,0,1,171.994,35.509)"><path fill="#00b5ce" d="M10.456,-3.147C10.072,-3.873,9.317,-4.327,8.496,-4.327C8.496,-4.327,-10.729,-4.327,-10.729,-4.327C-12.4,-4.327,-13.47,-2.548,-12.689,-1.072C-12.689,-1.072,-10.457,3.146,-10.457,3.146C-10.072,3.873,-9.318,4.327,-8.496,4.327C-8.496,4.327,10.728,4.327,10.728,4.327C12.399,4.327,13.47,2.548,12.688,1.071C12.688,1.071,10.456,-3.147,10.456,-3.147Z" /></g><g id="i28" transform="matrix(1,0,0,1,170.602,8.132)"><path fill="#00b5ce" d="M12.339,-2.025C11.925,-2.429,11.368,-2.655,10.79,-2.655C10.79,-2.655,-11.687,-2.655,-11.687,-2.655C-13.677,-2.655,-14.659,-0.239,-13.235,1.15C-13.235,1.15,-12.338,2.025,-12.338,2.025C-11.924,2.429,-11.368,2.655,-10.79,2.655C-10.79,2.655,11.688,2.655,11.688,2.655C13.677,2.655,14.658,0.238,13.234,-1.15C13.234,-1.15,12.339,-2.025,12.339,-2.025Z" /></g><g id="i29" transform="matrix(1,0,0,1,114.691,25.359)"><path fill="#00b5ce" d="M10.944,-2.935C10.607,-3.776,9.793,-4.327,8.886,-4.327C8.886,-4.327,-10.577,-4.327,-10.577,-4.327C-12.147,-4.327,-13.22,-2.742,-12.636,-1.285C-12.636,-1.285,-10.944,2.935,-10.944,2.935C-10.607,3.776,-9.791,4.327,-8.885,4.327C-8.885,4.327,10.579,4.327,10.579,4.327C12.147,4.327,13.22,2.741,12.636,1.284C12.636,1.284,10.944,-2.935,10.944,-2.935Z" /></g><g id="i30" transform="matrix(1,0,0,1,61.601,16.263)"><path fill="#00b5ce" d="M-9.385,-2.376C-9.028,-3.174,-8.236,-3.688,-7.362,-3.688C-7.362,-3.688,8.676,-3.688,8.676,-3.688C10.283,-3.688,11.357,-2.031,10.701,-0.564C10.701,-0.564,9.385,2.376,9.385,2.376C9.028,3.175,8.235,3.688,7.361,3.688C7.361,3.688,-8.676,3.688,-8.676,3.688C-10.283,3.688,-11.357,2.032,-10.7,0.564C-10.7,0.564,-9.385,-2.376,-9.385,-2.376Z" /></g><g id="i13" transform="matrix(1,0,0,1,121.595,16.263)"><path fill="#00b5ce" d="M9.386,-2.376C9.029,-3.174,8.236,-3.688,7.361,-3.688C7.361,-3.688,-8.676,-3.688,-8.676,-3.688C-10.282,-3.688,-11.356,-2.031,-10.7,-0.564C-10.7,-0.564,-9.385,2.376,-9.385,2.376C-9.028,3.175,-8.235,3.688,-7.361,3.688C-7.361,3.688,8.676,3.688,8.676,3.688C10.282,3.688,11.356,2.032,10.699,0.564C10.699,0.564,9.386,-2.376,9.386,-2.376Z" /></g><g id="i14" transform="matrix(1,0,0,1,14.094,25.36)"><path fill="#00b5ce" d="M-9.389,-3.479C-8.969,-4.014,-8.326,-4.327,-7.645,-4.327C-7.645,-4.327,10.958,-4.327,10.958,-4.327C12.808,-4.327,13.844,-2.195,12.701,-0.74C12.701,-0.74,9.389,3.479,9.389,3.479C8.969,4.014,8.325,4.327,7.645,4.327C7.645,4.327,-10.958,4.327,-10.958,4.327C-12.808,4.327,-13.845,2.195,-12.702,0.74C-12.702,0.74,-9.389,-3.479,-9.389,-3.479Z" /></g><g id="i3" transform="matrix(1,0,0,1,145.446,25.36)"><path fill="#00b5ce" d="M9.388,-3.479C8.968,-4.014,8.326,-4.327,7.644,-4.327C7.644,-4.327,-10.958,-4.327,-10.958,-4.327C-12.808,-4.327,-13.844,-2.195,-12.702,-0.74C-12.702,-0.74,-9.388,3.479,-9.388,3.479C-8.968,4.014,-8.326,4.327,-7.645,4.327C-7.645,4.327,10.958,4.327,10.958,4.327C12.808,4.327,13.844,2.195,12.702,0.74C12.702,0.74,9.388,-3.479,9.388,-3.479Z" /></g><g id="i4" transform="matrix(1,0,0,1,31.721,15.8)"><path fill="#00b5ce" d="M-7.011,-2.881C-6.592,-3.327,-6.008,-3.579,-5.396,-3.579C-5.396,-3.579,8.019,-3.579,8.019,-3.579C9.87,-3.579,10.906,-1.447,9.763,0.008C9.763,0.008,7.625,2.73,7.625,2.73C7.205,3.265,6.562,3.579,5.881,3.579C5.881,3.579,-7.959,3.579,-7.959,3.579C-9.903,3.579,-10.906,1.256,-9.574,-0.159C-9.574,-0.159,-7.011,-2.881,-7.011,-2.881Z" /></g><g id="i5" transform="matrix(1,0,0,1,152.303,15.8)"><path fill="#00b5ce" d="M7.011,-2.881C6.592,-3.327,6.008,-3.579,5.397,-3.579C5.397,-3.579,-8.019,-3.579,-8.019,-3.579C-9.869,-3.579,-10.906,-1.447,-9.763,0.008C-9.763,0.008,-7.625,2.73,-7.625,2.73C-7.204,3.265,-6.561,3.579,-5.882,3.579C-5.882,3.579,7.959,3.579,7.959,3.579C9.903,3.579,10.906,1.256,9.574,-0.159C9.574,-0.159,7.011,-2.881,7.011,-2.881Z" /></g><g id="i6" transform="matrix(1,0,0,1,26.63,8.295)"><path fill="#00b5ce" d="M-7.116,-2.353C-6.696,-2.888,-6.053,-3.199,-5.372,-3.199C-5.372,-3.199,6.915,-3.199,6.915,-3.199C8.765,-3.199,9.802,-1.068,8.659,0.387C8.659,0.387,7.116,2.352,7.116,2.352C6.696,2.887,6.053,3.199,5.372,3.199C5.372,3.199,-6.915,3.199,-6.915,3.199C-8.765,3.199,-9.802,1.066,-8.659,-0.389C-8.659,-0.389,-7.116,-2.353,-7.116,-2.353Z" /></g></g><g transform="matrix(1,0,0,1,100.344,202.239)" visibility="visible" id="i31"><animate repeatCount="indefinite" begin="0s" calcMode="discrete" dur="4s" values="visible; hidden; hidden" keyTimes="0; 0.817; 1" attributeName="visibility" /><g id="i6" transform="matrix(1,0,0,1,48.701,4.127)"><path fill="#00b5ce" d="M-48.222,2.43C-48.222,2.43,-46.447,-3.107,-46.447,-3.107C-46.3,-3.566,-45.873,-3.877,-45.391,-3.877C-45.391,-3.877,44.979,-3.877,44.979,-3.877C45.436,-3.877,45.845,-3.597,46.011,-3.171C46.011,-3.171,48.168,2.367,48.168,2.367C48.451,3.092,47.915,3.877,47.135,3.877C47.135,3.877,-47.166,3.877,-47.166,3.877C-47.918,3.877,-48.451,3.145,-48.222,2.43Z"><animate repeatCount="indefinite" attributeName="fill" dur="4s" begin="0s" fill="freeze" values="#00b5ce; #00b5ce; #ff4400; #00b5ce; #00b5ce; #ff4400; #00b5ce; #00b5ce" keyTimes="0; 0.054167; 0.091667; 0.129167; 0.329167; 0.366667; 0.404167; 1" keySplines="0 0 1 1; 0 0 1 1; 0 0 1 1; 0 0 1 1; 0 0 1 1; 0 0 1 1; 0 0 1 1" calcMode="spline" /></path></g></g><g transform="matrix(1,0,0,1,115.776,192.057)" visibility="visible" id="i32"><animate repeatCount="indefinite" begin="0s" calcMode="discrete" dur="4s" values="visible; hidden; hidden" keyTimes="0; 0.817; 1" attributeName="visibility" /><g id="i6" transform="matrix(1,0,0,1,12.155,4.226)"><path fill="#00b5ce" d="M-11.591,2.431C-11.591,2.431,-9.816,-3.106,-9.816,-3.106C-9.669,-3.565,-9.242,-3.877,-8.76,-3.877C-8.76,-3.877,9.206,-3.877,9.206,-3.877C9.717,-3.877,10.16,-3.528,10.283,-3.033C10.283,-3.033,11.648,2.504,11.648,2.504C11.821,3.202,11.292,3.877,10.572,3.877C10.572,3.877,-10.535,3.877,-10.535,3.877C-11.287,3.877,-11.82,3.147,-11.591,2.431Z"><animate repeatCount="indefinite" attributeName="fill" dur="4s" begin="0s" fill="freeze" values="#00b5ce; #00b5ce; #ff4400; #00b5ce; #00b5ce; #ff4400; #00b5ce; #00b5ce; #ff4400; #00b5ce; #00b5ce" keyTimes="0; 0.075; 0.1125; 0.15; 0.3625; 0.4; 0.4375; 0.55; 0.5875; 0.625; 1" keySplines="0 0 1 1; 0 0 1 1; 0 0 1 1; 0 0 1 1; 0 0 1 1; 0 0 1 1; 0 0 1 1; 0 0 1 1; 0 0 1 1; 0 0 1 1" calcMode="spline" /></path></g></g><g transform="matrix(1,0,0,1,128.656,183.601)" visibility="visible" id="i33"><animate repeatCount="indefinite" begin="0s" calcMode="discrete" dur="4s" values="visible; hidden; hidden" keyTimes="0; 0.817; 1" attributeName="visibility" /><g id="i6" transform="matrix(1,0,0,1,10.388,3.18)"><path fill="#00b5ce" d="M-9.873,1.44C-9.873,1.44,-8.539,-2.203,-8.539,-2.203C-8.379,-2.64,-7.963,-2.93,-7.498,-2.93C-7.498,-2.93,7.846,-2.93,7.846,-2.93C8.342,-2.93,8.778,-2.6,8.913,-2.122C8.913,-2.122,9.939,1.521,9.939,1.521C10.138,2.228,9.607,2.93,8.872,2.93C8.872,2.93,-8.832,2.93,-8.832,2.93C-9.602,2.93,-10.138,2.165,-9.873,1.44Z" /></g></g><g transform="matrix(1,0,0,1,121.284,176.521)" visibility="visible" id="i34"><animate repeatCount="indefinite" begin="0s" calcMode="discrete" dur="4s" values="visible; hidden; hidden" keyTimes="0; 0.817; 1" attributeName="visibility" /><g id="i6" transform="matrix(1,0,0,1,9.543,2.63)"><path fill="#00b5ce" d="M-8.989,0.845C-8.989,0.845,-7.931,-1.697,-7.931,-1.697C-7.76,-2.111,-7.356,-2.38,-6.907,-2.38C-6.907,-2.38,7.194,-2.38,7.194,-2.38C7.677,-2.38,8.103,-2.068,8.25,-1.609C8.25,-1.609,9.064,0.933,9.064,0.933C9.293,1.649,8.759,2.38,8.008,2.38C8.008,2.38,-7.966,2.38,-7.966,2.38C-8.757,2.38,-9.293,1.575,-8.989,0.845Z"><animate repeatCount="indefinite" attributeName="fill" dur="4s" begin="0s" fill="freeze" values="#00b5ce; #00b5ce; #ff4400; #00b5ce; #00b5ce; #ff4400; #00b5ce; #00b5ce" keyTimes="0; 0.158333; 0.195833; 0.233333; 0.425; 0.4625; 0.5; 1" keySplines="0 0 1 1; 0 0 1 1; 0 0 1 1; 0 0 1 1; 0 0 1 1; 0 0 1 1; 0 0 1 1" calcMode="spline" /></path></g></g><g transform="matrix(1,0,0,1,120.919,171.776)" visibility="visible" id="i35"><animate repeatCount="indefinite" begin="0s" calcMode="discrete" dur="4s" values="visible; hidden; hidden" keyTimes="0; 0.817; 1" attributeName="visibility" /><g id="i6" transform="matrix(1,0,0,1,9.142,1.849)"><path fill="#00b5ce" d="M7.476,-1.385C7.232,-1.526,6.956,-1.599,6.675,-1.599C6.675,-1.599,-6.674,-1.599,-6.674,-1.599C-8.311,-1.599,-8.892,0.567,-7.475,1.385C-7.232,1.526,-6.956,1.599,-6.674,1.599C-6.674,1.599,6.675,1.599,6.675,1.599C8.311,1.599,8.892,-0.567,7.476,-1.385Z"><animate repeatCount="indefinite" attributeName="fill" dur="4s" begin="0s" fill="freeze" values="#00b5ce; #00b5ce; #ff4400; #00b5ce; #00b5ce; #ff4400; #00b5ce; #00b5ce" keyTimes="0; 0.120833; 0.158333; 0.195833; 0.475; 0.5125; 0.55; 1" keySplines="0 0 1 1; 0 0 1 1; 0 0 1 1; 0 0 1 1; 0 0 1 1; 0 0 1 1; 0 0 1 1" calcMode="spline" /></path></g></g><g transform="matrix(1,0,0,1,212.419,184.654)" visibility="visible" id="i36"><animate repeatCount="indefinite" begin="0s" calcMode="discrete" dur="4s" values="visible; hidden; hidden" keyTimes="0; 0.817; 1" attributeName="visibility" /><g id="i6" transform="matrix(1,0,0,1,17.59,7.187)"><path fill="#00b5ce" d="M5.264,-6.937C5.264,-6.937,-9.917,-6.937,-9.917,-6.937C-10.868,-6.937,-11.378,-5.819,-10.755,-5.101C-10.755,-5.101,-7.878,-1.787,-7.878,-1.787C-7.255,-1.068,-7.764,0.048,-8.715,0.048C-8.715,0.048,-15.927,0.048,-15.927,0.048C-16.811,0.048,-17.34,1.033,-16.851,1.77C-16.851,1.77,-13.759,6.44,-13.759,6.44C-13.554,6.75,-13.208,6.937,-12.836,6.937C-12.836,6.937,15.871,6.937,15.871,6.937C16.834,6.937,17.34,5.793,16.692,5.081C16.692,5.081,6.083,-6.575,6.083,-6.575C5.873,-6.805,5.576,-6.937,5.264,-6.937Z"><animate repeatCount="indefinite" attributeName="fill" dur="4s" begin="0s" fill="freeze" values="#00b5ce; #00b5ce; #ff4400; #00b5ce; #00b5ce; #ff4400; #00b5ce; #00b5ce" keyTimes="0; 0.391667; 0.429167; 0.466666; 0.9; 0.9375; 0.975; 1" keySplines="0 0 1 1; 0 0 1 1; 0 0 1 1; 0 0 1 1; 0 0 1 1; 0 0 1 1; 0 0 1 1" calcMode="spline" /></path></g></g><g transform="matrix(1,0,0,1,217.84,171.421)" visibility="visible" id="i37"><animate repeatCount="indefinite" begin="0s" calcMode="discrete" dur="4s" values="visible; hidden; hidden" keyTimes="0; 0.817; 1" attributeName="visibility" /><g id="i6" transform="matrix(1,0,0,1,5.524,1.849)"><path fill="#00b5ce" d="M4.318,-1.094C4.016,-1.417,3.593,-1.6,3.15,-1.6C3.15,-1.6,-3.15,-1.6,-3.15,-1.6C-4.549,-1.6,-5.274,0.071,-4.318,1.094C-4.015,1.416,-3.591,1.6,-3.15,1.6C-3.15,1.6,3.15,1.6,3.15,1.6C4.55,1.6,5.275,-0.072,4.318,-1.094Z" /></g></g><g transform="matrix(1,0,0,1,195.13,171.42)" visibility="visible" id="i38"><animate repeatCount="indefinite" begin="0s" calcMode="discrete" dur="4s" values="visible; hidden; hidden" keyTimes="0; 0.817; 1" attributeName="visibility" /><g id="i6" transform="matrix(1,0,0,1,9.142,1.85)"><path fill="#00b5ce" d="M7.476,-1.385C7.232,-1.526,6.955,-1.6,6.675,-1.6C6.675,-1.6,-6.674,-1.6,-6.674,-1.6C-8.311,-1.6,-8.892,0.567,-7.475,1.387C-7.232,1.526,-6.956,1.6,-6.674,1.6C-6.674,1.6,6.675,1.6,6.675,1.6C8.311,1.6,8.892,-0.567,7.476,-1.385Z" /></g></g><g transform="matrix(1,0,0,1,145.532,171.42)" visibility="visible" id="i39"><animate repeatCount="indefinite" begin="0s" calcMode="discrete" dur="4s" values="visible; hidden; hidden" keyTimes="0; 0.817; 1" attributeName="visibility" /><g id="i6" transform="matrix(1,0,0,1,9.142,1.85)"><path fill="#00b5ce" d="M7.475,-1.385C7.232,-1.526,6.955,-1.6,6.673,-1.6C6.673,-1.6,-6.675,-1.6,-6.675,-1.6C-8.312,-1.6,-8.892,0.567,-7.476,1.387C-7.233,1.526,-6.957,1.6,-6.675,1.6C-6.675,1.6,6.673,1.6,6.673,1.6C8.311,1.6,8.892,-0.567,7.475,-1.385Z" /></g></g><g transform="matrix(1,0,0,1,95.64,171.776)" visibility="visible" id="i40"><animate repeatCount="indefinite" begin="0s" calcMode="discrete" dur="4s" values="visible; hidden; hidden" keyTimes="0; 0.817; 1" attributeName="visibility" /><g id="i6" transform="matrix(1,0,0,1,9.143,1.849)"><path fill="#00b5ce" d="M-7.475,-1.385C-7.231,-1.526,-6.955,-1.599,-6.674,-1.599C-6.674,-1.599,6.674,-1.599,6.674,-1.599C8.311,-1.599,8.893,0.567,7.476,1.385C7.233,1.526,6.955,1.599,6.674,1.599C6.674,1.599,-6.674,1.599,-6.674,1.599C-8.31,1.599,-8.892,-0.567,-7.475,-1.385Z" /></g></g><g transform="matrix(1,0,0,1,148.299,175.701)" visibility="visible" id="i41"><animate repeatCount="indefinite" begin="0s" calcMode="discrete" dur="4s" values="visible; hidden; hidden" keyTimes="0; 0.817; 1" attributeName="visibility" /><g id="i6" transform="matrix(1,0,0,1,10.052,3.45)"><path fill="#00b5ce" d="M7.116,-2.353C6.695,-2.888,6.053,-3.199,5.372,-3.199C5.372,-3.199,-6.915,-3.199,-6.915,-3.199C-8.766,-3.199,-9.802,-1.068,-8.659,0.387C-8.659,0.387,-7.116,2.352,-7.116,2.352C-6.696,2.887,-6.054,3.199,-5.373,3.199C-5.373,3.199,6.914,3.199,6.914,3.199C8.765,3.199,9.802,1.066,8.658,-0.389C8.658,-0.389,7.116,-2.353,7.116,-2.353Z" /></g></g><g transform="matrix(1,0,0,1,92.68,175.701)" visibility="visible" id="i42"><animate repeatCount="indefinite" begin="0s" calcMode="discrete" dur="4s" values="visible; hidden; hidden" keyTimes="0; 0.817; 1" attributeName="visibility" /><g id="i6" transform="matrix(1,0,0,1,10.052,3.45)"><path fill="#00b5ce" d="M-7.115,-2.353C-6.695,-2.888,-6.053,-3.199,-5.372,-3.199C-5.372,-3.199,6.915,-3.199,6.915,-3.199C8.765,-3.199,9.802,-1.068,8.66,0.387C8.66,0.387,7.117,2.352,7.117,2.352C6.697,2.887,6.053,3.199,5.372,3.199C5.372,3.199,-6.915,3.199,-6.915,3.199C-8.765,3.199,-9.802,1.066,-8.658,-0.389C-8.658,-0.389,-7.115,-2.353,-7.115,-2.353Z"><animate repeatCount="indefinite" attributeName="fill" dur="4s" begin="0s" fill="freeze" values="#00b5ce; #00b5ce; #ff4400; #00b5ce; #00b5ce" keyTimes="0; 0.125; 0.1625; 0.2; 1" keySplines="0 0 1 1; 0 0 1 1; 0 0 1 1; 0 0 1 1" calcMode="spline" /></path></g></g><g transform="matrix(1,0,0,1,176.558,175.701)" visibility="visible" id="i43"><animate repeatCount="indefinite" begin="0s" calcMode="discrete" dur="4s" values="visible; hidden; hidden" keyTimes="0; 0.817; 1" attributeName="visibility" /><g id="i6" transform="matrix(1,0,0,1,10.052,3.45)"><path fill="#00b5ce" d="M7.116,-2.353C6.696,-2.888,6.054,-3.199,5.374,-3.199C5.374,-3.199,-6.915,-3.199,-6.915,-3.199C-8.766,-3.199,-9.803,-1.068,-8.659,0.387C-8.659,0.387,-7.116,2.352,-7.116,2.352C-6.697,2.887,-6.054,3.199,-5.372,3.199C-5.372,3.199,6.915,3.199,6.915,3.199C8.764,3.199,9.803,1.066,8.659,-0.389C8.659,-0.389,7.116,-2.353,7.116,-2.353Z"><animate repeatCount="indefinite" attributeName="fill" dur="4s" begin="0s" fill="freeze" values="#00b5ce; #00b5ce; #ff4400; #00b5ce; #00b5ce; #ff4400; #00b5ce; #00b5ce; #ff4400; #00b5ce; #00b5ce" keyTimes="0; 0.204167; 0.241667; 0.279167; 0.475; 0.5125; 0.55; 0.675; 0.7125; 0.75; 1" keySplines="0 0 1 1; 0 0 1 1; 0 0 1 1; 0 0 1 1; 0 0 1 1; 0 0 1 1; 0 0 1 1; 0 0 1 1; 0 0 1 1; 0 0 1 1" calcMode="spline" /></path></g></g></g></defs><g visibility="visible" id="i44"><animate repeatCount="indefinite" begin="0s" calcMode="discrete" dur="4s" values="visible; hidden; hidden" keyTimes="0; 0.529; 1" attributeName="visibility" /><g transform="translate(150,167)"><animateTransform repeatCount="indefinite" type="translate" attributeName="transform" dur="4s" begin="0s" calcMode="spline" values="150 167; 150 167; 151 115; 151 126.5; 151 126.5; 151 175.5; 151 175.5" keyTimes="0; 0.070833; 0.125; 0.141667; 0.333333; 0.575; 1" keySplines="0 0 1 1; 0.333 0 0.667 1; 0.333 0 0.667 1; 0.333 0 0.667 1; 0.333 0 0.667 1; 0 0 1 1" fill="freeze" /><g transform="scale(1,1) translate(-150,-125)"><g clip-path="url(#i0)"><g transform="matrix(1,0,0,1,82.338,25.613)"><g transform="matrix(1,0,0,1,29.017,30.848)"><path stroke-width="1.887" stroke="#000000" fill="#666666" d="M25.934,28.962C25.934,28.962,26.848,28.962,26.848,28.962C26.848,28.962,26.876,28.047,26.876,28.047C27.114,20.297,27.131,1.934,25.255,-9.321C25.068,-10.446,24.894,-11.49,24.733,-12.459C23.905,-17.457,23.411,-20.442,22.962,-22.21C22.699,-23.248,22.415,-24.031,21.982,-24.561C21.471,-25.184,20.852,-25.352,20.279,-25.412C19.837,-25.458,19.427,-25.308,19.12,-25.153C18.795,-24.989,18.465,-24.759,18.146,-24.501C17.507,-23.985,16.808,-23.276,16.124,-22.515C15.027,-21.292,13.913,-19.865,13.064,-18.71C11.183,-20.054,7.543,-21.833,3.035,-21.766C-1.085,-21.704,-4.297,-20.664,-6.104,-19.793C-6.579,-21.356,-7.293,-23.274,-8.189,-24.926C-8.755,-25.97,-9.422,-26.96,-10.187,-27.685C-10.947,-28.407,-11.91,-28.962,-13.033,-28.878C-13.589,-28.836,-14.033,-28.519,-14.357,-28.203C-14.694,-27.873,-15.009,-27.437,-15.303,-26.946C-15.895,-25.96,-16.496,-24.599,-17.096,-23.003C-18.3,-19.802,-19.554,-15.497,-20.721,-10.97C-23.056,-1.913,-25.076,8.164,-25.691,12.372C-26.671,19.081,-27.042,25.57,-27.105,27.994C-27.105,27.994,-27.13,28.962,-27.13,28.962C-27.13,28.962,-26.163,28.962,-26.163,28.962C-26.163,28.962,25.934,28.962,25.934,28.962Z" /></g><g transform="matrix(1,0,0,1,17.159,10.945)"><path fill="#9b999a" d="M-1.074,-4.729C-2.096,-4.707,-3.312,0.499,-3.792,3.099C-3.411,4.756,2.814,2.528,3.303,1.631C3.792,0.734,0.204,-4.756,-1.074,-4.729Z" /></g><g transform="matrix(1,0,0,1,47.465,14.09)"><path fill="#9b999a" d="M1.04,-4.576C2.029,-4.555,3.205,0.482,3.669,2.998C3.301,4.602,-2.721,2.446,-3.195,1.578C-3.668,0.71,-0.197,-4.602,1.04,-4.576Z" /></g><g transform="matrix(1,0,0,1,32.047,13.794)"><path fill="#f3f3f3" fill-rule="evenodd" d="M3.583,-3.417C4.944,-3.129,6.159,-2.691,7.182,-2.215C7.182,-2.215,6.692,2.027,6.692,2.027C6.574,3.045,5.652,3.776,4.633,3.659C3.614,3.541,2.885,2.62,3.003,1.6C3.003,1.6,3.57,-3.32,3.57,-3.32C3.574,-3.353,3.578,-3.385,3.583,-3.417ZM-2.064,-3.648C-1.402,-3.715,-0.707,-3.757,0.018,-3.768C0.576,-3.776,1.121,-3.755,1.649,-3.708C1.65,-3.679,1.652,-3.649,1.652,-3.62C1.652,-3.62,1.652,1.333,1.652,1.333C1.652,2.359,0.819,3.19,-0.206,3.19C-1.232,3.19,-2.064,2.359,-2.064,1.333C-2.064,1.333,-2.064,-3.62,-2.064,-3.62C-2.064,-3.62,-2.064,-3.648,-2.064,-3.648ZM-7.182,-2.526C-6.169,-2.885,-4.918,-3.229,-3.469,-3.464C-3.468,-3.431,-3.467,-3.398,-3.467,-3.364C-3.467,-3.364,-3.467,1.589,-3.467,1.589C-3.467,2.615,-4.299,3.446,-5.325,3.446C-6.35,3.446,-7.182,2.615,-7.182,1.589C-7.182,1.589,-7.182,-2.526,-7.182,-2.526Z" /></g></g><g transform="matrix(1,0,0,1,98.297,47.814)"><g transform="matrix(1,0,0,1,3.147,3.148)"><path fill="#000000" d="M-0.001,-2.898C1.6,-2.898,2.898,-1.601,2.898,-0.001C2.898,1.6,1.6,2.898,-0.001,2.898C-1.601,2.898,-2.898,1.6,-2.898,-0.001C-2.898,-1.601,-1.601,-2.898,-0.001,-2.898Z" /></g><g transform="matrix(1,0,0,1,3.782,2.046)"><path fill="#c4c4c4" d="M0,-1.101C0.608,-1.101,1.101,-0.608,1.101,0C1.101,0.608,0.608,1.101,0,1.101C-0.608,1.101,-1.101,0.608,-1.101,0C-1.101,-0.608,-0.608,-1.101,0,-1.101Z" /></g></g><g transform="matrix(1,0,0,1,121.317,49.496)"><g transform="matrix(1,0,0,1,3.147,3.148)"><path fill="#000000" d="M-0.001,-2.898C1.6,-2.898,2.898,-1.6,2.898,0.001C2.898,1.601,1.6,2.898,-0.001,2.898C-1.601,2.898,-2.898,1.601,-2.898,0.001C-2.898,-1.6,-1.601,-2.898,-0.001,-2.898Z" /></g><g transform="matrix(1,0,0,1,4.247,2.047)"><path fill="#c4c4c4" d="M0,-1.101C0.608,-1.101,1.101,-0.608,1.101,0C1.101,0.608,0.608,1.101,0,1.101C-0.608,1.101,-1.101,0.608,-1.101,0C-1.101,-0.608,-0.608,-1.101,0,-1.101Z" /></g></g><g transform="matrix(1,0,0,1,109.125,51.261)"><g transform="matrix(1,0,0,1,4.219,2.597)"><path stroke-linejoin="round" stroke-linecap="round" stroke-width="0.915" stroke="#000000" d="M-3.214,-1.682C-3.304,-0.56,-3.123,1.682,-1.682,1.682C-0.24,1.682,0.02,-0.22,-0.03,-1.171C-0.1,-0.22,0.15,1.682,1.712,1.682C3.274,1.682,3.304,-0.44,3.123,-1.501" /></g></g></g></g></g></g><g visibility="visible" id="i45"><animate repeatCount="indefinite" begin="0s" calcMode="discrete" dur="4s" values="visible; hidden; hidden" keyTimes="0; 0.529; 1" attributeName="visibility" /><g transform="translate(221.006,111.937)"><animateTransform repeatCount="indefinite" type="translate" attributeName="transform" dur="4s" begin="0s" calcMode="spline" values="221.006 111.937; 230.506 90.937; 230.506 90.937; 217.006 111.937; 217.006 111.937" keyTimes="0; 0.091667; 0.4125; 0.466667; 1" keySplines="0 0 1 1; 0 0 1 1; 0 0 1 1; 0 0 1 1" fill="freeze" /><g transform="scale(1,1) translate(-7.761,-8.287)"><g id="i6" transform="matrix(1,0,0,1,7.761,8.287)"><path stroke-width="1.899" stroke="#fc5a5a" d="M4.855,-4.362C4.855,-4.362,5.725,4.062,5.725,4.062C5.863,5.401,4.499,6.388,3.271,5.838C3.271,5.838,-4.46,2.379,-4.46,2.379C-5.689,1.83,-5.862,0.156,-4.771,-0.633C-4.771,-0.633,2.089,-5.599,2.089,-5.599C3.18,-6.388,4.716,-5.701,4.855,-4.362Z" /></g></g></g></g><g visibility="visible" id="i46"><animate repeatCount="indefinite" begin="0s" calcMode="discrete" dur="4s" values="visible; hidden; hidden" keyTimes="0; 0.529; 1" attributeName="visibility" /><g transform="translate(217.764,119.07)"><animateTransform repeatCount="indefinite" type="translate" attributeName="transform" dur="4s" begin="0s" calcMode="spline" values="217.764 119.07; 254.264 76.07; 254.264 76.07; 204.514 122.07; 204.514 122.07" keyTimes="0; 0.091667; 0.4125; 0.466667; 1" keySplines="0 0 1 1; 0 0 1 1; 0 0 1 1; 0 0 1 1" fill="freeze" /><g transform="scale(1,1) translate(-5.925,-5.924)"><g id="i6" transform="matrix(1,0,0,1,5.925,5.924)"><path stroke-width="1.899" stroke="#ffcf0f" d="M-2.278,-4.026C-2.278,-4.026,2.277,-4.026,2.277,-4.026C3.243,-4.026,4.026,-3.243,4.026,-2.278C4.026,-2.278,4.026,2.278,4.026,2.278C4.026,3.244,3.243,4.026,2.277,4.026C2.277,4.026,-2.278,4.026,-2.278,4.026C-3.243,4.026,-4.026,3.244,-4.026,2.278C-4.026,2.278,-4.026,-2.278,-4.026,-2.278C-4.026,-3.243,-3.243,-4.026,-2.278,-4.026Z" /></g></g></g></g><g visibility="visible" id="i47"><animate repeatCount="indefinite" begin="0s" calcMode="discrete" dur="4s" values="visible; hidden; hidden" keyTimes="0; 0.529; 1" attributeName="visibility" /><g transform="translate(219.573,127.476)"><animateTransform repeatCount="indefinite" type="translate" attributeName="transform" dur="4s" begin="0s" calcMode="spline" values="219.573 127.476; 253.073 106.976; 253.073 106.976; 212.198 134.601; 212.198 134.601" keyTimes="0; 0.091667; 0.4125; 0.466667; 1" keySplines="0 0 1 1; 0 0 1 1; 0 0 1 1; 0 0 1 1" fill="freeze" /><g transform="scale(1,1) translate(-5.437,-5.437)"><g id="i6" transform="matrix(1,0,0,1,5.437,5.437)"><path stroke-width="1.899" stroke="#00b5ce" d="M-3.015,-0.617C-3.015,-0.617,-1.8,-2.494,-1.8,-2.494C-1.277,-3.305,-0.195,-3.538,0.617,-3.014C0.617,-3.014,2.495,-1.801,2.495,-1.801C3.305,-1.276,3.538,-0.194,3.013,0.617C3.013,0.617,1.8,2.495,1.8,2.495C1.276,3.306,0.193,3.538,-0.618,3.014C-0.618,3.014,-2.494,1.8,-2.494,1.8C-3.306,1.277,-3.538,0.194,-3.015,-0.617Z" /></g></g></g></g><g visibility="visible" id="i48"><animate repeatCount="indefinite" begin="0s" calcMode="discrete" dur="4s" values="visible; hidden; hidden" keyTimes="0; 0.529; 1" attributeName="visibility" /><g transform="translate(80.95,123.244)"><animateTransform repeatCount="indefinite" type="translate" attributeName="transform" dur="4s" begin="0s" calcMode="spline" values="80.95 123.244; 46.2 115.244; 46.2 115.244; 95.2 129.244; 95.2 129.244" keyTimes="0; 0.091666; 0.445834; 0.529167; 1" keySplines="1 0 0 1; 0.333 0 0 1; 0.333 0 0 1; 0 0 1 1" fill="freeze" /><g transform="rotate(8)"><animateTransform repeatCount="indefinite" type="rotate" attributeName="transform" dur="4s" begin="0s" calcMode="spline" values="8; 8; 8" keyTimes="0; 0.179167; 1" keySplines="0.333 0 0.667 1; 0 0 1 1" fill="freeze" /><g transform="scale(1,1) translate(-7.318,-6.893)"><g id="i6" transform="matrix(1,0,0,1,7.318,6.893)"><path stroke-width="2" stroke="#fc5a5a" d="M4.902,-2.908C4.902,-2.908,1.934,3.811,1.934,3.811C1.517,4.755,0.235,4.893,-0.374,4.06C-0.374,4.06,-4.71,-1.87,-4.71,-1.87C-5.319,-2.702,-4.797,-3.882,-3.771,-3.993C-3.771,-3.993,3.531,-4.782,3.531,-4.782C4.557,-4.893,5.319,-3.852,4.902,-2.908Z" /></g></g></g></g></g><g visibility="visible" id="i49"><animate repeatCount="indefinite" begin="0s" calcMode="discrete" dur="4s" values="visible; hidden; hidden" keyTimes="0; 0.529; 1" attributeName="visibility" /><g transform="translate(104.77,120.627)"><animateTransform repeatCount="indefinite" type="translate" attributeName="transform" dur="4s" begin="0s" calcMode="spline" values="104.77 120.627; 59.145 93.877; 59.145 93.877; 100.645 136.377; 100.645 136.377" keyTimes="0; 0.091666; 0.445834; 0.529167; 1" keySplines="0.333 0 0.667 1; 0.333 0 0.667 1; 0.333 0 0.667 1; 0 0 1 1" fill="freeze" /><g transform="rotate(8)"><animateTransform repeatCount="indefinite" type="rotate" attributeName="transform" dur="4s" begin="0s" calcMode="spline" values="8; 8; 8" keyTimes="0; 0.179167; 1" keySplines="0.333 0 0.667 1; 0 0 1 1" fill="freeze" /><g transform="scale(1,1) translate(-6.225,-6.226)"><g id="i6" transform="matrix(1,0,0,1,6.225,6.226)"><path stroke-width="2" stroke="#ffcf0f" d="M-0.071,-3.859C-0.071,-3.859,3.359,-1.899,3.359,-1.899C4.002,-1.532,4.225,-0.713,3.858,-0.07C3.858,-0.07,1.899,3.359,1.899,3.359C1.532,4.001,0.714,4.226,0.071,3.859C0.071,3.859,-3.36,1.9,-3.36,1.9C-4.002,1.533,-4.225,0.714,-3.859,0.072C-3.859,0.072,-1.9,-3.359,-1.9,-3.359C-1.532,-4.002,-0.714,-4.226,-0.071,-3.859Z" /></g></g></g></g></g><g visibility="visible" id="i50"><animate repeatCount="indefinite" begin="0s" calcMode="discrete" dur="4s" values="visible; hidden; hidden" keyTimes="0; 0.529; 1" attributeName="visibility" /><g transform="translate(90.577,143.391)"><animateTransform repeatCount="indefinite" type="translate" attributeName="transform" dur="4s" begin="0s" calcMode="spline" values="90.577 143.391; 66.327 132.141; 66.327 132.141; 87.327 137.641; 87.327 137.641" keyTimes="0; 0.091666; 0.445834; 0.529167; 1" keySplines="0 0 1 1; 0 0 1 1; 0 0 1 1; 0 0 1 1" fill="freeze" /><g transform="rotate(8)"><animateTransform repeatCount="indefinite" type="rotate" attributeName="transform" dur="4s" begin="0s" calcMode="spline" values="8; 8; 8" keyTimes="0; 0.179167; 1" keySplines="0 0 1 1; 0 0 1 1" fill="freeze" /><g transform="scale(1,1) translate(-4.837,-4.837)"><g id="i6" transform="matrix(1,0,0,1,4.837,4.837)"><path stroke-width="2" stroke="#00b5ce" d="M-1.923,-1.604C-1.923,-1.604,-0.202,-2.497,-0.202,-2.497C0.455,-2.837,1.264,-2.581,1.605,-1.923C1.605,-1.923,2.497,-0.202,2.497,-0.202C2.837,0.456,2.581,1.264,1.924,1.605C1.924,1.605,0.202,2.497,0.202,2.497C-0.455,2.836,-1.264,2.581,-1.604,1.924C-1.604,1.924,-2.496,0.202,-2.496,0.202C-2.837,-0.456,-2.58,-1.264,-1.923,-1.604Z" /></g></g></g></g></g><g transform="matrix(1,0,0,1,32.605,165.412)" visibility="visible" id="i51"><animate repeatCount="indefinite" begin="0s" calcMode="discrete" dur="4s" values="visible; hidden; hidden" keyTimes="0; 0.621; 1" attributeName="visibility" /><g id="i4" transform="matrix(1,0,0,1,116.782,40.957)"><path fill="#dddddd" d="M-88.467,-21.426C-85.967,-24.687,-82.093,-26.597,-77.985,-26.597C-77.985,-26.597,76.076,-26.597,76.076,-26.597C80,-26.597,83.721,-24.853,86.231,-21.835C86.231,-21.835,108.505,4.94,108.505,4.94C115.664,13.547,109.544,26.597,98.35,26.597C98.35,26.597,-98.518,26.597,-98.518,26.597C-109.469,26.597,-115.664,14.04,-109.001,5.35C-109.001,5.35,-88.467,-21.426,-88.467,-21.426Z" /></g><g id="i5" transform="matrix(1,0,0,1,116.804,34.083)"><path stroke-width="1.887" stroke="#000000" fill="#ffffff" d="M-77.879,-26.534C-77.879,-26.534,75.924,-26.534,75.924,-26.534C79.636,-26.534,83.149,-24.852,85.477,-21.96C85.477,-21.96,108.455,6.575,108.455,6.575C114.917,14.6,109.205,26.534,98.902,26.534C98.902,26.534,-99.061,26.534,-99.061,26.534C-109.14,26.534,-114.918,15.05,-108.91,6.956C-108.91,6.956,-87.728,-21.579,-87.728,-21.579C-85.414,-24.697,-81.761,-26.534,-77.879,-26.534Z" /></g><g id="i6" transform="matrix(1,0,0,1,116.776,27.542)"><path stroke-width="1.887" stroke="#000000" fill="#ffffff" d="M-77.979,-25.655C-77.979,-25.655,76.082,-25.655,76.082,-25.655C79.727,-25.655,83.181,-24.034,85.512,-21.233C85.512,-21.233,107.786,5.544,107.786,5.544C114.434,13.535,108.75,25.655,98.356,25.655C98.356,25.655,-98.512,25.655,-98.512,25.655C-108.681,25.655,-114.434,13.993,-108.246,5.924C-108.246,5.924,-87.712,-20.853,-87.712,-20.853C-85.391,-23.88,-81.793,-25.655,-77.979,-25.655Z" /></g></g><g transform="matrix(1,0,0,1,72.279,64.83)" visibility="visible" id="i52"><animate repeatCount="indefinite" begin="0s" calcMode="discrete" dur="4s" values="visible; hidden; hidden" keyTimes="0; 0.621; 1" attributeName="visibility" /><g id="i13" transform="matrix(1,0,0,1,77.722,51.756)"><path fill="#dddddd" d="M-63.569,-46.812C-63.569,-46.812,63.568,-46.812,63.568,-46.812C70.864,-46.812,76.778,-40.899,76.778,-33.604C76.778,-33.604,76.778,33.604,76.778,33.604C76.778,40.898,70.864,46.812,63.568,46.812C63.568,46.812,-63.569,46.812,-63.569,46.812C-70.864,46.812,-76.778,40.898,-76.778,33.604C-76.778,33.604,-76.778,-33.604,-76.778,-33.604C-76.778,-40.899,-70.864,-46.812,-63.569,-46.812Z" /></g><g id="i14" transform="matrix(1,0,0,1,77.721,47.756)"><path stroke-width="1.887" stroke="#000000" fill="#ffffff" d="M-63.568,-45.869C-63.568,-45.869,63.568,-45.869,63.568,-45.869C70.342,-45.869,75.835,-40.377,75.835,-33.603C75.835,-33.603,75.835,33.603,75.835,33.603C75.835,40.378,70.342,45.869,63.568,45.869C63.568,45.869,-63.568,45.869,-63.568,45.869C-70.342,45.869,-75.835,40.378,-75.835,33.603C-75.835,33.603,-75.835,-33.603,-75.835,-33.603C-75.835,-40.377,-70.342,-45.869,-63.568,-45.869Z" /></g><g id="i3" transform="matrix(1,0,0,1,77.722,47.423)"><path fill="#333333" d="M-57.999,-35.868C-57.999,-35.868,58,-35.868,58,-35.868C62.566,-35.868,66.268,-32.166,66.268,-27.599C66.268,-27.599,66.268,27.6,66.268,27.6C66.268,32.167,62.566,35.868,58,35.868C58,35.868,-57.999,35.868,-57.999,35.868C-62.565,35.868,-66.268,32.167,-66.268,27.6C-66.268,27.6,-66.268,-27.599,-66.268,-27.599C-66.268,-32.166,-62.565,-35.868,-57.999,-35.868Z" /></g><g id="i4" transform="matrix(1,0,0,1,119.661,16.848)"><path fill="#3dd598" d="M0.001,-2.802C1.548,-2.802,2.801,-1.547,2.801,0.001C2.801,1.548,1.548,2.802,0.001,2.802C-1.547,2.802,-2.801,1.548,-2.801,0.001C-2.801,-1.547,-1.547,-2.802,0.001,-2.802Z" /></g><g id="i5" transform="matrix(1,0,0,1,127.662,16.848)"><path fill="#ffcf0f" d="M0.001,-2.802C1.548,-2.802,2.801,-1.547,2.801,0.001C2.801,1.548,1.548,2.802,0.001,2.802C-1.547,2.802,-2.801,1.548,-2.801,0.001C-2.801,-1.547,-1.547,-2.802,0.001,-2.802Z" /></g><g id="i6" transform="matrix(1,0,0,1,135.662,16.848)"><path fill="#fc5a5a" d="M0.001,-2.802C1.548,-2.802,2.801,-1.547,2.801,0.001C2.801,1.548,1.548,2.802,0.001,2.802C-1.547,2.802,-2.801,1.548,-2.801,0.001C-2.801,-1.547,-1.547,-2.802,0.001,-2.802Z" /></g></g><g visibility="visible" id="i53"><animate repeatCount="indefinite" begin="0s" calcMode="discrete" dur="4s" values="visible; hidden; hidden" keyTimes="0; 0.621; 1" attributeName="visibility" /><g transform="translate(114.292,114.21)"><g transform="scale(0,1)"><animateTransform repeatCount="indefinite" type="scale" attributeName="transform" dur="4s" begin="0s" calcMode="spline" values="0 1; 0 1; 1 1; 1 1" keyTimes="0; 0.558333; 0.604167; 1" keySplines="0 0 1 1; 0 0 1 1; 0 0 1 1" fill="freeze" /><g transform="translate(-0.488,-2.473)"><g id="i6" transform="matrix(1,0,0,1,9.738,2.348)"><path fill="#3dd598" d="M-7.391,-2.098C-7.391,-2.098,7.391,-2.098,7.391,-2.098C8.549,-2.098,9.488,-1.158,9.488,0.001C9.488,1.159,8.549,2.098,7.391,2.098C7.391,2.098,-7.391,2.098,-7.391,2.098C-8.549,2.098,-9.488,1.159,-9.488,0.001C-9.488,-1.158,-8.549,-2.098,-7.391,-2.098Z" /></g></g></g></g></g><g visibility="visible" id="i54"><animate repeatCount="indefinite" begin="0s" calcMode="discrete" dur="4s" values="visible; hidden; hidden" keyTimes="0; 0.621; 1" attributeName="visibility" /><g transform="translate(92.243,114.085)"><g transform="scale(0,1)"><animateTransform repeatCount="indefinite" type="scale" attributeName="transform" dur="4s" begin="0s" calcMode="spline" values="0 1; 0 1; 1 1; 1 1" keyTimes="0; 0.466667; 0.5125; 1" keySplines="0 0 1 1; 0 0 1 1; 0 0 1 1" fill="freeze" /><g transform="translate(-0.364,-2.348)"><g id="i6" transform="matrix(1,0,0,1,9.739,2.348)"><path fill="#3dd598" d="M-7.391,-2.098C-7.391,-2.098,7.391,-2.098,7.391,-2.098C8.549,-2.098,9.488,-1.158,9.488,0.001C9.488,1.159,8.549,2.098,7.391,2.098C7.391,2.098,-7.391,2.098,-7.391,2.098C-8.549,2.098,-9.488,1.159,-9.488,0.001C-9.488,-1.158,-8.549,-2.098,-7.391,-2.098Z" /></g></g></g></g></g><g visibility="visible" id="i55"><animate repeatCount="indefinite" begin="0s" calcMode="discrete" dur="4s" values="visible; hidden; hidden" keyTimes="0; 0.621; 1" attributeName="visibility" /><g transform="translate(103.015,103.892)"><g transform="scale(0,1)"><animateTransform repeatCount="indefinite" type="scale" attributeName="transform" dur="4s" begin="0s" calcMode="spline" values="0 1; 0 1; 1 1; 1 1" keyTimes="0; 0.366667; 0.4125; 1" keySplines="0 0 1 1; 0 0 1 1; 0 0 1 1" fill="freeze" /><g transform="translate(-0.271,-2.347)"><g id="i6" transform="matrix(1,0,0,1,25.709,2.347)"><path fill="#3dd598" d="M-23.361,-2.097C-23.361,-2.097,23.361,-2.097,23.361,-2.097C24.519,-2.097,25.458,-1.158,25.458,0C25.458,1.158,24.519,2.097,23.361,2.097C23.361,2.097,-23.361,2.097,-23.361,2.097C-24.519,2.097,-25.458,1.158,-25.458,0C-25.458,-1.158,-24.519,-2.097,-23.361,-2.097Z" /></g></g></g></g></g><g visibility="visible" id="i56"><animate repeatCount="indefinite" begin="0s" calcMode="discrete" dur="4s" values="visible; hidden; hidden" keyTimes="0; 0.621; 1" attributeName="visibility" /><g transform="translate(92.233,103.892)"><g transform="scale(0,1)"><animateTransform repeatCount="indefinite" type="scale" attributeName="transform" dur="4s" begin="0s" calcMode="spline" values="0 1; 0 1; 1 1; 1 1" keyTimes="0; 0.266667; 0.3125; 1" keySplines="0 0 1 1; 0 0 1 1; 0 0 1 1" fill="freeze" /><g transform="translate(-0.353,-2.347)"><g id="i6" transform="matrix(1,0,0,1,4.478,2.347)"><path fill="#3dd598" d="M-2.131,-2.097C-2.131,-2.097,2.131,-2.097,2.131,-2.097C3.289,-2.097,4.228,-1.158,4.228,0C4.228,1.158,3.289,2.097,2.131,2.097C2.131,2.097,-2.131,2.097,-2.131,2.097C-3.289,2.097,-4.228,1.158,-4.228,0C-4.228,-1.158,-3.289,-2.097,-2.131,-2.097Z" /></g></g></g></g></g><g visibility="visible" id="i57"><animate repeatCount="indefinite" begin="0s" calcMode="discrete" dur="4s" values="visible; hidden; hidden" keyTimes="0; 0.621; 1" attributeName="visibility" /><g transform="translate(117.958,95.384)"><g transform="scale(0,1)"><animateTransform repeatCount="indefinite" type="scale" attributeName="transform" dur="4s" begin="0s" calcMode="spline" values="0 1; 0 1; 1 1; 1 1" keyTimes="0; 0.166667; 0.2125; 1" keySplines="0 0 1 1; 0 0 1 1; 0 0 1 1" fill="freeze" /><g transform="translate(-0.271,-2.472)"><g id="i6" transform="matrix(1,0,0,1,25.708,2.347)"><path fill="#3dd598" d="M-23.361,-2.097C-23.361,-2.097,23.36,-2.097,23.36,-2.097C24.518,-2.097,25.458,-1.158,25.458,0C25.458,1.158,24.518,2.097,23.36,2.097C23.36,2.097,-23.361,2.097,-23.361,2.097C-24.519,2.097,-25.458,1.158,-25.458,0C-25.458,-1.158,-24.519,-2.097,-23.361,-2.097Z" /></g></g></g></g></g><g visibility="visible" id="i58"><animate repeatCount="indefinite" begin="0s" calcMode="discrete" dur="4s" values="visible; hidden; hidden" keyTimes="0; 0.621; 1" attributeName="visibility" /><g transform="translate(107.546,95.259)"><g transform="scale(0,1)"><animateTransform repeatCount="indefinite" type="scale" attributeName="transform" dur="4s" begin="0s" calcMode="spline" values="0 1; 0 1; 1 1; 1 1" keyTimes="0; 0.0625; 0.108333; 1" keySplines="0 0 1 1; 0 0 1 1; 0 0 1 1" fill="freeze" /><g transform="translate(-0.728,-2.347)"><g id="i6" transform="matrix(1,0,0,1,4.478,2.347)"><path fill="#3dd598" d="M-2.131,-2.097C-2.131,-2.097,2.131,-2.097,2.131,-2.097C3.289,-2.097,4.228,-1.158,4.228,0C4.228,1.158,3.289,2.097,2.131,2.097C2.131,2.097,-2.131,2.097,-2.131,2.097C-3.289,2.097,-4.228,1.158,-4.228,0C-4.228,-1.158,-3.289,-2.097,-2.131,-2.097Z" /></g></g></g></g></g><g visibility="visible" id="i59"><animate repeatCount="indefinite" begin="0s" calcMode="discrete" dur="4s" values="visible; hidden; hidden" keyTimes="0; 0.621; 1" attributeName="visibility" /><g transform="translate(92.171,95.384)"><g transform="scale(0,1)"><animateTransform repeatCount="indefinite" type="scale" attributeName="transform" dur="4s" begin="0s" calcMode="spline" values="0 1; 1 1; 1 1" keyTimes="0; 0.045833; 1" keySplines="0 0 1 1; 0 0 1 1" fill="freeze" /><g transform="translate(-0.291,-2.472)"><g id="i6" transform="matrix(1,0,0,1,6.666,2.347)"><path fill="#3dd598" d="M-4.319,-2.097C-4.319,-2.097,4.319,-2.097,4.319,-2.097C5.477,-2.097,6.416,-1.158,6.416,0C6.416,1.158,5.477,2.097,4.319,2.097C4.319,2.097,-4.319,2.097,-4.319,2.097C-5.477,2.097,-6.416,1.158,-6.416,0C-6.416,-1.158,-5.477,-2.097,-4.319,-2.097Z" /></g></g></g></g></g><g transform="matrix(1,0,0,1,47.843,170.857)" visibility="visible" id="i60"><animate repeatCount="indefinite" begin="0s" calcMode="discrete" dur="4s" values="visible; hidden; hidden" keyTimes="0; 0.621; 1" attributeName="visibility" /><g id="i23" transform="matrix(1,0,0,1,34.596,2.309)"><path fill="#00b5ce" d="M-7.266,-0.47C-6.272,-1.487,-4.913,-2.059,-3.492,-2.059C-3.492,-2.059,7.232,-2.059,7.232,-2.059C8.167,-2.059,8.639,-0.934,7.986,-0.266C7.986,-0.266,7.266,0.47,7.266,0.47C6.273,1.487,4.913,2.059,3.492,2.059C3.492,2.059,-7.23,2.059,-7.23,2.059C-8.165,2.059,-8.639,0.934,-7.986,0.266C-7.986,0.266,-7.266,-0.47,-7.266,-0.47Z" /></g><g id="i24" transform="matrix(1,0,0,1,130.801,2.309)"><path fill="#00b5ce" d="M7.267,-0.47C6.274,-1.487,4.912,-2.059,3.491,-2.059C3.491,-2.059,-7.231,-2.059,-7.231,-2.059C-8.167,-2.059,-8.64,-0.934,-7.986,-0.266C-7.986,-0.266,-7.266,0.47,-7.266,0.47C-6.273,1.487,-4.912,2.059,-3.491,2.059C-3.491,2.059,7.232,2.059,7.232,2.059C8.165,2.059,8.64,0.934,7.987,0.266C7.987,0.266,7.267,-0.47,7.267,-0.47Z" /></g><g id="i25" transform="matrix(1,0,0,1,48.453,25.359)"><path fill="#00b5ce" d="M-10.945,-2.935C-10.608,-3.776,-9.792,-4.327,-8.885,-4.327C-8.885,-4.327,10.577,-4.327,10.577,-4.327C12.147,-4.327,13.221,-2.742,12.637,-1.285C12.637,-1.285,10.945,2.935,10.945,2.935C10.608,3.776,9.793,4.327,8.887,4.327C8.887,4.327,-10.577,4.327,-10.577,4.327C-12.147,4.327,-13.22,2.741,-12.635,1.284C-12.635,1.284,-10.945,-2.935,-10.945,-2.935Z" /></g><g id="i26" transform="matrix(1,0,0,1,29.89,35.509)"><path fill="#00b5ce" d="M-10.456,-3.147C-10.072,-3.873,-9.317,-4.327,-8.496,-4.327C-8.496,-4.327,10.729,-4.327,10.729,-4.327C12.399,-4.327,13.47,-2.548,12.689,-1.072C12.689,-1.072,10.457,3.146,10.457,3.146C10.072,3.873,9.318,4.327,8.497,4.327C8.497,4.327,-10.728,4.327,-10.728,4.327C-12.399,4.327,-13.47,2.548,-12.688,1.071C-12.688,1.071,-10.456,-3.147,-10.456,-3.147Z" /></g><g id="i27" transform="matrix(1,0,0,1,171.994,35.509)"><path fill="#00b5ce" d="M10.456,-3.147C10.072,-3.873,9.317,-4.327,8.496,-4.327C8.496,-4.327,-10.729,-4.327,-10.729,-4.327C-12.4,-4.327,-13.47,-2.548,-12.689,-1.072C-12.689,-1.072,-10.457,3.146,-10.457,3.146C-10.072,3.873,-9.318,4.327,-8.496,4.327C-8.496,4.327,10.728,4.327,10.728,4.327C12.399,4.327,13.47,2.548,12.688,1.071C12.688,1.071,10.456,-3.147,10.456,-3.147Z" /></g><g id="i28" transform="matrix(1,0,0,1,170.602,8.132)"><path fill="#00b5ce" d="M12.339,-2.025C11.925,-2.429,11.368,-2.655,10.79,-2.655C10.79,-2.655,-11.687,-2.655,-11.687,-2.655C-13.677,-2.655,-14.659,-0.239,-13.235,1.15C-13.235,1.15,-12.338,2.025,-12.338,2.025C-11.924,2.429,-11.368,2.655,-10.79,2.655C-10.79,2.655,11.688,2.655,11.688,2.655C13.677,2.655,14.658,0.238,13.234,-1.15C13.234,-1.15,12.339,-2.025,12.339,-2.025Z" /></g><g id="i29" transform="matrix(1,0,0,1,114.691,25.359)"><path fill="#00b5ce" d="M10.944,-2.935C10.607,-3.776,9.793,-4.327,8.886,-4.327C8.886,-4.327,-10.577,-4.327,-10.577,-4.327C-12.147,-4.327,-13.22,-2.742,-12.636,-1.285C-12.636,-1.285,-10.944,2.935,-10.944,2.935C-10.607,3.776,-9.791,4.327,-8.885,4.327C-8.885,4.327,10.579,4.327,10.579,4.327C12.147,4.327,13.22,2.741,12.636,1.284C12.636,1.284,10.944,-2.935,10.944,-2.935Z" /></g><g id="i30" transform="matrix(1,0,0,1,61.601,16.263)"><path fill="#00b5ce" d="M-9.385,-2.376C-9.028,-3.174,-8.236,-3.688,-7.362,-3.688C-7.362,-3.688,8.676,-3.688,8.676,-3.688C10.283,-3.688,11.357,-2.031,10.701,-0.564C10.701,-0.564,9.385,2.376,9.385,2.376C9.028,3.175,8.235,3.688,7.361,3.688C7.361,3.688,-8.676,3.688,-8.676,3.688C-10.283,3.688,-11.357,2.032,-10.7,0.564C-10.7,0.564,-9.385,-2.376,-9.385,-2.376Z" /></g><g id="i13" transform="matrix(1,0,0,1,121.595,16.263)"><path fill="#00b5ce" d="M9.386,-2.376C9.029,-3.174,8.236,-3.688,7.361,-3.688C7.361,-3.688,-8.676,-3.688,-8.676,-3.688C-10.282,-3.688,-11.356,-2.031,-10.7,-0.564C-10.7,-0.564,-9.385,2.376,-9.385,2.376C-9.028,3.175,-8.235,3.688,-7.361,3.688C-7.361,3.688,8.676,3.688,8.676,3.688C10.282,3.688,11.356,2.032,10.699,0.564C10.699,0.564,9.386,-2.376,9.386,-2.376Z" /></g><g id="i14" transform="matrix(1,0,0,1,14.094,25.36)"><path fill="#00b5ce" d="M-9.389,-3.479C-8.969,-4.014,-8.326,-4.327,-7.645,-4.327C-7.645,-4.327,10.958,-4.327,10.958,-4.327C12.808,-4.327,13.844,-2.195,12.701,-0.74C12.701,-0.74,9.389,3.479,9.389,3.479C8.969,4.014,8.325,4.327,7.645,4.327C7.645,4.327,-10.958,4.327,-10.958,4.327C-12.808,4.327,-13.845,2.195,-12.702,0.74C-12.702,0.74,-9.389,-3.479,-9.389,-3.479Z" /></g><g id="i3" transform="matrix(1,0,0,1,145.446,25.36)"><path fill="#00b5ce" d="M9.388,-3.479C8.968,-4.014,8.326,-4.327,7.644,-4.327C7.644,-4.327,-10.958,-4.327,-10.958,-4.327C-12.808,-4.327,-13.844,-2.195,-12.702,-0.74C-12.702,-0.74,-9.388,3.479,-9.388,3.479C-8.968,4.014,-8.326,4.327,-7.645,4.327C-7.645,4.327,10.958,4.327,10.958,4.327C12.808,4.327,13.844,2.195,12.702,0.74C12.702,0.74,9.388,-3.479,9.388,-3.479Z" /></g><g id="i4" transform="matrix(1,0,0,1,31.721,15.8)"><path fill="#00b5ce" d="M-7.011,-2.881C-6.592,-3.327,-6.008,-3.579,-5.396,-3.579C-5.396,-3.579,8.019,-3.579,8.019,-3.579C9.87,-3.579,10.906,-1.447,9.763,0.008C9.763,0.008,7.625,2.73,7.625,2.73C7.205,3.265,6.562,3.579,5.881,3.579C5.881,3.579,-7.959,3.579,-7.959,3.579C-9.903,3.579,-10.906,1.256,-9.574,-0.159C-9.574,-0.159,-7.011,-2.881,-7.011,-2.881Z" /></g><g id="i5" transform="matrix(1,0,0,1,152.303,15.8)"><path fill="#00b5ce" d="M7.011,-2.881C6.592,-3.327,6.008,-3.579,5.397,-3.579C5.397,-3.579,-8.019,-3.579,-8.019,-3.579C-9.869,-3.579,-10.906,-1.447,-9.763,0.008C-9.763,0.008,-7.625,2.73,-7.625,2.73C-7.204,3.265,-6.561,3.579,-5.882,3.579C-5.882,3.579,7.959,3.579,7.959,3.579C9.903,3.579,10.906,1.256,9.574,-0.159C9.574,-0.159,7.011,-2.881,7.011,-2.881Z" /></g><g id="i6" transform="matrix(1,0,0,1,26.63,8.295)"><path fill="#00b5ce" d="M-7.116,-2.353C-6.696,-2.888,-6.053,-3.199,-5.372,-3.199C-5.372,-3.199,6.915,-3.199,6.915,-3.199C8.765,-3.199,9.802,-1.068,8.659,0.387C8.659,0.387,7.116,2.352,7.116,2.352C6.696,2.887,6.053,3.199,5.372,3.199C5.372,3.199,-6.915,3.199,-6.915,3.199C-8.765,3.199,-9.802,1.066,-8.659,-0.389C-8.659,-0.389,-7.116,-2.353,-7.116,-2.353Z" /></g></g><g transform="matrix(1,0,0,1,100.344,202.239)" visibility="visible" id="i61"><animate repeatCount="indefinite" begin="0s" calcMode="discrete" dur="4s" values="visible; hidden; hidden" keyTimes="0; 0.621; 1" attributeName="visibility" /><g id="i6" transform="matrix(1,0,0,1,48.701,4.127)"><path fill="#00b5ce" d="M-48.222,2.43C-48.222,2.43,-46.447,-3.107,-46.447,-3.107C-46.3,-3.566,-45.873,-3.877,-45.391,-3.877C-45.391,-3.877,44.979,-3.877,44.979,-3.877C45.436,-3.877,45.845,-3.597,46.011,-3.171C46.011,-3.171,48.168,2.367,48.168,2.367C48.451,3.092,47.915,3.877,47.135,3.877C47.135,3.877,-47.166,3.877,-47.166,3.877C-47.918,3.877,-48.451,3.145,-48.222,2.43Z"><animate repeatCount="indefinite" attributeName="fill" dur="4s" begin="0s" fill="freeze" values="#00b5ce; #00b5ce; #ff4400; #00b5ce; #00b5ce; #ff4400; #00b5ce; #00b5ce" keyTimes="0; 0.054167; 0.091667; 0.129167; 0.329167; 0.366667; 0.404167; 1" keySplines="0 0 1 1; 0 0 1 1; 0 0 1 1; 0 0 1 1; 0 0 1 1; 0 0 1 1; 0 0 1 1" calcMode="spline" /></path></g></g><g transform="matrix(1,0,0,1,115.776,192.057)" visibility="visible" id="i62"><animate repeatCount="indefinite" begin="0s" calcMode="discrete" dur="4s" values="visible; hidden; hidden" keyTimes="0; 0.621; 1" attributeName="visibility" /><g id="i6" transform="matrix(1,0,0,1,12.155,4.226)"><path fill="#00b5ce" d="M-11.591,2.431C-11.591,2.431,-9.816,-3.106,-9.816,-3.106C-9.669,-3.565,-9.242,-3.877,-8.76,-3.877C-8.76,-3.877,9.206,-3.877,9.206,-3.877C9.717,-3.877,10.16,-3.528,10.283,-3.033C10.283,-3.033,11.648,2.504,11.648,2.504C11.821,3.202,11.292,3.877,10.572,3.877C10.572,3.877,-10.535,3.877,-10.535,3.877C-11.287,3.877,-11.82,3.147,-11.591,2.431Z"><animate repeatCount="indefinite" attributeName="fill" dur="4s" begin="0s" fill="freeze" values="#00b5ce; #00b5ce; #ff4400; #00b5ce; #00b5ce; #ff4400; #00b5ce; #00b5ce; #ff4400; #00b5ce; #00b5ce" keyTimes="0; 0.075; 0.1125; 0.15; 0.3625; 0.4; 0.4375; 0.55; 0.5875; 0.625; 1" keySplines="0 0 1 1; 0 0 1 1; 0 0 1 1; 0 0 1 1; 0 0 1 1; 0 0 1 1; 0 0 1 1; 0 0 1 1; 0 0 1 1; 0 0 1 1" calcMode="spline" /></path></g></g><g transform="matrix(1,0,0,1,128.656,183.601)" visibility="visible" id="i62"><animate repeatCount="indefinite" begin="0s" calcMode="discrete" dur="4s" values="visible; hidden; hidden" keyTimes="0; 0.621; 1" attributeName="visibility" /><g id="i6" transform="matrix(1,0,0,1,10.388,3.18)"><path fill="#00b5ce" d="M-9.873,1.44C-9.873,1.44,-8.539,-2.203,-8.539,-2.203C-8.379,-2.64,-7.963,-2.93,-7.498,-2.93C-7.498,-2.93,7.846,-2.93,7.846,-2.93C8.342,-2.93,8.778,-2.6,8.913,-2.122C8.913,-2.122,9.939,1.521,9.939,1.521C10.138,2.228,9.607,2.93,8.872,2.93C8.872,2.93,-8.832,2.93,-8.832,2.93C-9.602,2.93,-10.138,2.165,-9.873,1.44Z" /></g></g><g transform="matrix(1,0,0,1,121.284,176.521)" visibility="visible" id="i63"><animate repeatCount="indefinite" begin="0s" calcMode="discrete" dur="4s" values="visible; hidden; hidden" keyTimes="0; 0.621; 1" attributeName="visibility" /><g id="i6" transform="matrix(1,0,0,1,9.543,2.63)"><path fill="#00b5ce" d="M-8.989,0.845C-8.989,0.845,-7.931,-1.697,-7.931,-1.697C-7.76,-2.111,-7.356,-2.38,-6.907,-2.38C-6.907,-2.38,7.194,-2.38,7.194,-2.38C7.677,-2.38,8.103,-2.068,8.25,-1.609C8.25,-1.609,9.064,0.933,9.064,0.933C9.293,1.649,8.759,2.38,8.008,2.38C8.008,2.38,-7.966,2.38,-7.966,2.38C-8.757,2.38,-9.293,1.575,-8.989,0.845Z"><animate repeatCount="indefinite" attributeName="fill" dur="4s" begin="0s" fill="freeze" values="#00b5ce; #00b5ce; #ff4400; #00b5ce; #00b5ce; #ff4400; #00b5ce; #00b5ce" keyTimes="0; 0.158333; 0.195833; 0.233333; 0.425; 0.4625; 0.5; 1" keySplines="0 0 1 1; 0 0 1 1; 0 0 1 1; 0 0 1 1; 0 0 1 1; 0 0 1 1; 0 0 1 1" calcMode="spline" /></path></g></g><g transform="matrix(1,0,0,1,120.919,171.776)" visibility="visible" id="i64"><animate repeatCount="indefinite" begin="0s" calcMode="discrete" dur="4s" values="visible; hidden; hidden" keyTimes="0; 0.621; 1" attributeName="visibility" /><g id="i6" transform="matrix(1,0,0,1,9.142,1.849)"><path fill="#00b5ce" d="M7.476,-1.385C7.232,-1.526,6.956,-1.599,6.675,-1.599C6.675,-1.599,-6.674,-1.599,-6.674,-1.599C-8.311,-1.599,-8.892,0.567,-7.475,1.385C-7.232,1.526,-6.956,1.599,-6.674,1.599C-6.674,1.599,6.675,1.599,6.675,1.599C8.311,1.599,8.892,-0.567,7.476,-1.385Z"><animate repeatCount="indefinite" attributeName="fill" dur="4s" begin="0s" fill="freeze" values="#00b5ce; #00b5ce; #ff4400; #00b5ce; #00b5ce; #ff4400; #00b5ce; #00b5ce" keyTimes="0; 0.120833; 0.158333; 0.195833; 0.475; 0.5125; 0.55; 1" keySplines="0 0 1 1; 0 0 1 1; 0 0 1 1; 0 0 1 1; 0 0 1 1; 0 0 1 1; 0 0 1 1" calcMode="spline" /></path></g></g><g transform="matrix(1,0,0,1,212.419,184.654)" visibility="visible" id="i65"><animate repeatCount="indefinite" begin="0s" calcMode="discrete" dur="4s" values="visible; hidden; hidden" keyTimes="0; 0.621; 1" attributeName="visibility" /><g id="i6" transform="matrix(1,0,0,1,17.59,7.187)"><path fill="#00b5ce" d="M5.264,-6.937C5.264,-6.937,-9.917,-6.937,-9.917,-6.937C-10.868,-6.937,-11.378,-5.819,-10.755,-5.101C-10.755,-5.101,-7.878,-1.787,-7.878,-1.787C-7.255,-1.068,-7.764,0.048,-8.715,0.048C-8.715,0.048,-15.927,0.048,-15.927,0.048C-16.811,0.048,-17.34,1.033,-16.851,1.77C-16.851,1.77,-13.759,6.44,-13.759,6.44C-13.554,6.75,-13.208,6.937,-12.836,6.937C-12.836,6.937,15.871,6.937,15.871,6.937C16.834,6.937,17.34,5.793,16.692,5.081C16.692,5.081,6.083,-6.575,6.083,-6.575C5.873,-6.805,5.576,-6.937,5.264,-6.937Z"><animate repeatCount="indefinite" attributeName="fill" dur="4s" begin="0s" fill="freeze" values="#00b5ce; #00b5ce; #ff4400; #00b5ce; #00b5ce; #ff4400; #00b5ce; #00b5ce" keyTimes="0; 0.391667; 0.429167; 0.466666; 0.9; 0.9375; 0.975; 1" keySplines="0 0 1 1; 0 0 1 1; 0 0 1 1; 0 0 1 1; 0 0 1 1; 0 0 1 1; 0 0 1 1" calcMode="spline" /></path></g></g><g transform="matrix(1,0,0,1,217.84,171.421)" visibility="visible" id="i66"><animate repeatCount="indefinite" begin="0s" calcMode="discrete" dur="4s" values="visible; hidden; hidden" keyTimes="0; 0.621; 1" attributeName="visibility" /><g id="i6" transform="matrix(1,0,0,1,5.524,1.849)"><path fill="#00b5ce" d="M4.318,-1.094C4.016,-1.417,3.593,-1.6,3.15,-1.6C3.15,-1.6,-3.15,-1.6,-3.15,-1.6C-4.549,-1.6,-5.274,0.071,-4.318,1.094C-4.015,1.416,-3.591,1.6,-3.15,1.6C-3.15,1.6,3.15,1.6,3.15,1.6C4.55,1.6,5.275,-0.072,4.318,-1.094Z" /></g></g><g transform="matrix(1,0,0,1,195.13,171.42)" visibility="visible" id="i67"><animate repeatCount="indefinite" begin="0s" calcMode="discrete" dur="4s" values="visible; hidden; hidden" keyTimes="0; 0.621; 1" attributeName="visibility" /><g id="i6" transform="matrix(1,0,0,1,9.142,1.85)"><path fill="#00b5ce" d="M7.476,-1.385C7.232,-1.526,6.955,-1.6,6.675,-1.6C6.675,-1.6,-6.674,-1.6,-6.674,-1.6C-8.311,-1.6,-8.892,0.567,-7.475,1.387C-7.232,1.526,-6.956,1.6,-6.674,1.6C-6.674,1.6,6.675,1.6,6.675,1.6C8.311,1.6,8.892,-0.567,7.476,-1.385Z" /></g></g><g transform="matrix(1,0,0,1,145.532,171.42)" visibility="visible" id="i68"><animate repeatCount="indefinite" begin="0s" calcMode="discrete" dur="4s" values="visible; hidden; hidden" keyTimes="0; 0.621; 1" attributeName="visibility" /><g id="i6" transform="matrix(1,0,0,1,9.142,1.85)"><path fill="#00b5ce" d="M7.475,-1.385C7.232,-1.526,6.955,-1.6,6.673,-1.6C6.673,-1.6,-6.675,-1.6,-6.675,-1.6C-8.312,-1.6,-8.892,0.567,-7.476,1.387C-7.233,1.526,-6.957,1.6,-6.675,1.6C-6.675,1.6,6.673,1.6,6.673,1.6C8.311,1.6,8.892,-0.567,7.475,-1.385Z" /></g></g><g transform="matrix(1,0,0,1,95.64,171.776)" visibility="visible" id="i69"><animate repeatCount="indefinite" begin="0s" calcMode="discrete" dur="4s" values="visible; hidden; hidden" keyTimes="0; 0.621; 1" attributeName="visibility" /><g id="i6" transform="matrix(1,0,0,1,9.143,1.849)"><path fill="#00b5ce" d="M-7.475,-1.385C-7.231,-1.526,-6.955,-1.599,-6.674,-1.599C-6.674,-1.599,6.674,-1.599,6.674,-1.599C8.311,-1.599,8.893,0.567,7.476,1.385C7.233,1.526,6.955,1.599,6.674,1.599C6.674,1.599,-6.674,1.599,-6.674,1.599C-8.31,1.599,-8.892,-0.567,-7.475,-1.385Z" /></g></g><g transform="matrix(1,0,0,1,148.299,175.701)" visibility="visible" id="i70"><animate repeatCount="indefinite" begin="0s" calcMode="discrete" dur="4s" values="visible; hidden; hidden" keyTimes="0; 0.621; 1" attributeName="visibility" /><g id="i6" transform="matrix(1,0,0,1,10.052,3.45)"><path fill="#00b5ce" d="M7.116,-2.353C6.695,-2.888,6.053,-3.199,5.372,-3.199C5.372,-3.199,-6.915,-3.199,-6.915,-3.199C-8.766,-3.199,-9.802,-1.068,-8.659,0.387C-8.659,0.387,-7.116,2.352,-7.116,2.352C-6.696,2.887,-6.054,3.199,-5.373,3.199C-5.373,3.199,6.914,3.199,6.914,3.199C8.765,3.199,9.802,1.066,8.658,-0.389C8.658,-0.389,7.116,-2.353,7.116,-2.353Z" /></g></g><g transform="matrix(1,0,0,1,92.68,175.701)" visibility="visible" id="i71"><animate repeatCount="indefinite" begin="0s" calcMode="discrete" dur="4s" values="visible; hidden; hidden" keyTimes="0; 0.621; 1" attributeName="visibility" /><g id="i6" transform="matrix(1,0,0,1,10.052,3.45)"><path fill="#00b5ce" d="M-7.115,-2.353C-6.695,-2.888,-6.053,-3.199,-5.372,-3.199C-5.372,-3.199,6.915,-3.199,6.915,-3.199C8.765,-3.199,9.802,-1.068,8.66,0.387C8.66,0.387,7.117,2.352,7.117,2.352C6.697,2.887,6.053,3.199,5.372,3.199C5.372,3.199,-6.915,3.199,-6.915,3.199C-8.765,3.199,-9.802,1.066,-8.658,-0.389C-8.658,-0.389,-7.115,-2.353,-7.115,-2.353Z"><animate repeatCount="indefinite" attributeName="fill" dur="4s" begin="0s" fill="freeze" values="#00b5ce; #00b5ce; #ff4400; #00b5ce; #00b5ce" keyTimes="0; 0.125; 0.1625; 0.2; 1" keySplines="0 0 1 1; 0 0 1 1; 0 0 1 1; 0 0 1 1" calcMode="spline" /></path></g></g><g transform="matrix(1,0,0,1,176.558,175.701)" visibility="visible" id="i72"><animate repeatCount="indefinite" begin="0s" calcMode="discrete" dur="4s" values="visible; hidden; hidden" keyTimes="0; 0.621; 1" attributeName="visibility" /><g id="i6" transform="matrix(1,0,0,1,10.052,3.45)"><path fill="#00b5ce" d="M7.116,-2.353C6.696,-2.888,6.054,-3.199,5.374,-3.199C5.374,-3.199,-6.915,-3.199,-6.915,-3.199C-8.766,-3.199,-9.803,-1.068,-8.659,0.387C-8.659,0.387,-7.116,2.352,-7.116,2.352C-6.697,2.887,-6.054,3.199,-5.372,3.199C-5.372,3.199,6.915,3.199,6.915,3.199C8.764,3.199,9.803,1.066,8.659,-0.389C8.659,-0.389,7.116,-2.353,7.116,-2.353Z"><animate repeatCount="indefinite" attributeName="fill" dur="4s" begin="0s" fill="freeze" values="#00b5ce; #00b5ce; #ff4400; #00b5ce; #00b5ce; #ff4400; #00b5ce; #00b5ce; #ff4400; #00b5ce; #00b5ce" keyTimes="0; 0.204167; 0.241667; 0.279167; 0.475; 0.5125; 0.55; 0.675; 0.7125; 0.75; 1" keySplines="0 0 1 1; 0 0 1 1; 0 0 1 1; 0 0 1 1; 0 0 1 1; 0 0 1 1; 0 0 1 1; 0 0 1 1; 0 0 1 1; 0 0 1 1" calcMode="spline" /></path></g></g><g visibility="hidden" id="i73"><animate repeatCount="indefinite" begin="0s" calcMode="discrete" dur="4s" values="hidden; visible; visible" keyTimes="0; 0.621; 1" attributeName="visibility" /><animate repeatCount="indefinite" attributeName="opacity" dur="4s" begin="0s" fill="freeze" values="1; 1; 1; 0; 0" keyTimes="0; 0.620833; 0.65; 0.695833; 1" keySplines="0 0 1 1; 0 0 1 1; 0 0 1 1; 0 0 1 1" calcMode="spline" /><g transform="translate(150,125)"><g transform="rotate(0)"><animateTransform repeatCount="indefinite" type="rotate" attributeName="transform" dur="4s" begin="0s" calcMode="spline" values="0; 0; 0; -85; -85" keyTimes="0; 0.620833; 0.65; 0.695833; 1" keySplines="0 0 1 1; 0 0 1 1; 0 0 1 1; 0 0 1 1" fill="freeze" /><g transform="scale(1,1)"><animateTransform repeatCount="indefinite" type="scale" attributeName="transform" dur="4s" begin="0s" calcMode="spline" values="1 1; 1 1; 1 1; 0.15 0.15; 0.15 0.15" keyTimes="0; 0.620833; 0.65; 0.695833; 1" keySplines="0 0 1 1; 0 0 1 1; 0 0 1 1; 0 0 1 1" fill="freeze" /><g transform="translate(-150,-125)"><g clip-path="url(#i0)"><g transform="matrix(1,0,0,1,32.605,165.412)" visibility="visible"><animate repeatCount="indefinite" begin="0s" calcMode="discrete" dur="4s" values="visible; hidden; hidden" keyTimes="0; 0.817; 1" attributeName="visibility" /><g transform="matrix(1,0,0,1,116.782,40.957)"><path fill="#dddddd" d="M-88.467,-21.426C-85.967,-24.687,-82.093,-26.597,-77.985,-26.597C-77.985,-26.597,76.076,-26.597,76.076,-26.597C80,-26.597,83.721,-24.853,86.231,-21.835C86.231,-21.835,108.505,4.94,108.505,4.94C115.664,13.547,109.544,26.597,98.35,26.597C98.35,26.597,-98.518,26.597,-98.518,26.597C-109.469,26.597,-115.664,14.04,-109.001,5.35C-109.001,5.35,-88.467,-21.426,-88.467,-21.426Z" /></g><g transform="matrix(1,0,0,1,116.804,34.083)"><path stroke-width="1.887" stroke="#000000" fill="#ffffff" d="M-77.879,-26.534C-77.879,-26.534,75.924,-26.534,75.924,-26.534C79.636,-26.534,83.149,-24.852,85.477,-21.96C85.477,-21.96,108.455,6.575,108.455,6.575C114.917,14.6,109.205,26.534,98.902,26.534C98.902,26.534,-99.061,26.534,-99.061,26.534C-109.14,26.534,-114.918,15.05,-108.91,6.956C-108.91,6.956,-87.728,-21.579,-87.728,-21.579C-85.414,-24.697,-81.761,-26.534,-77.879,-26.534Z" /></g><g transform="matrix(1,0,0,1,116.776,27.542)"><path stroke-width="1.887" stroke="#000000" fill="#ffffff" d="M-77.979,-25.655C-77.979,-25.655,76.082,-25.655,76.082,-25.655C79.727,-25.655,83.181,-24.034,85.512,-21.233C85.512,-21.233,107.786,5.544,107.786,5.544C114.434,13.535,108.75,25.655,98.356,25.655C98.356,25.655,-98.512,25.655,-98.512,25.655C-108.681,25.655,-114.434,13.993,-108.246,5.924C-108.246,5.924,-87.712,-20.853,-87.712,-20.853C-85.391,-23.88,-81.793,-25.655,-77.979,-25.655Z" /></g></g><g transform="matrix(1,0,0,1,72.279,64.83)" visibility="visible"><animate repeatCount="indefinite" begin="0s" calcMode="discrete" dur="4s" values="visible; hidden; hidden" keyTimes="0; 0.817; 1" attributeName="visibility" /><g transform="matrix(1,0,0,1,77.722,51.756)"><path fill="#dddddd" d="M-63.569,-46.812C-63.569,-46.812,63.568,-46.812,63.568,-46.812C70.864,-46.812,76.778,-40.899,76.778,-33.604C76.778,-33.604,76.778,33.604,76.778,33.604C76.778,40.898,70.864,46.812,63.568,46.812C63.568,46.812,-63.569,46.812,-63.569,46.812C-70.864,46.812,-76.778,40.898,-76.778,33.604C-76.778,33.604,-76.778,-33.604,-76.778,-33.604C-76.778,-40.899,-70.864,-46.812,-63.569,-46.812Z" /></g><g transform="matrix(1,0,0,1,77.721,47.756)"><path stroke-width="1.887" stroke="#000000" fill="#ffffff" d="M-63.568,-45.869C-63.568,-45.869,63.568,-45.869,63.568,-45.869C70.342,-45.869,75.835,-40.377,75.835,-33.603C75.835,-33.603,75.835,33.603,75.835,33.603C75.835,40.378,70.342,45.869,63.568,45.869C63.568,45.869,-63.568,45.869,-63.568,45.869C-70.342,45.869,-75.835,40.378,-75.835,33.603C-75.835,33.603,-75.835,-33.603,-75.835,-33.603C-75.835,-40.377,-70.342,-45.869,-63.568,-45.869Z" /></g><g transform="matrix(1,0,0,1,77.722,47.423)"><path fill="#333333" d="M-57.999,-35.868C-57.999,-35.868,58,-35.868,58,-35.868C62.566,-35.868,66.268,-32.166,66.268,-27.599C66.268,-27.599,66.268,27.6,66.268,27.6C66.268,32.167,62.566,35.868,58,35.868C58,35.868,-57.999,35.868,-57.999,35.868C-62.565,35.868,-66.268,32.167,-66.268,27.6C-66.268,27.6,-66.268,-27.599,-66.268,-27.599C-66.268,-32.166,-62.565,-35.868,-57.999,-35.868Z" /></g><g transform="matrix(1,0,0,1,119.661,16.848)"><path fill="#3dd598" d="M0.001,-2.802C1.548,-2.802,2.801,-1.547,2.801,0.001C2.801,1.548,1.548,2.802,0.001,2.802C-1.547,2.802,-2.801,1.548,-2.801,0.001C-2.801,-1.547,-1.547,-2.802,0.001,-2.802Z" /></g><g transform="matrix(1,0,0,1,127.662,16.848)"><path fill="#ffcf0f" d="M0.001,-2.802C1.548,-2.802,2.801,-1.547,2.801,0.001C2.801,1.548,1.548,2.802,0.001,2.802C-1.547,2.802,-2.801,1.548,-2.801,0.001C-2.801,-1.547,-1.547,-2.802,0.001,-2.802Z" /></g><g transform="matrix(1,0,0,1,135.662,16.848)"><path fill="#fc5a5a" d="M0.001,-2.802C1.548,-2.802,2.801,-1.547,2.801,0.001C2.801,1.548,1.548,2.802,0.001,2.802C-1.547,2.802,-2.801,1.548,-2.801,0.001C-2.801,-1.547,-1.547,-2.802,0.001,-2.802Z" /></g></g><g visibility="visible"><animate repeatCount="indefinite" begin="0s" calcMode="discrete" dur="4s" values="visible; hidden; hidden" keyTimes="0; 0.817; 1" attributeName="visibility" /><g transform="translate(114.292,114.21)"><g transform="scale(0,1)"><animateTransform repeatCount="indefinite" type="scale" attributeName="transform" dur="4s" begin="0s" calcMode="spline" values="0 1; 0 1; 1 1; 1 1" keyTimes="0; 0.558333; 0.604167; 1" keySplines="0 0 1 1; 0 0 1 1; 0 0 1 1" fill="freeze" /><g transform="translate(-0.488,-2.473)"><g transform="matrix(1,0,0,1,9.738,2.348)"><path fill="#3dd598" d="M-7.391,-2.098C-7.391,-2.098,7.391,-2.098,7.391,-2.098C8.549,-2.098,9.488,-1.158,9.488,0.001C9.488,1.159,8.549,2.098,7.391,2.098C7.391,2.098,-7.391,2.098,-7.391,2.098C-8.549,2.098,-9.488,1.159,-9.488,0.001C-9.488,-1.158,-8.549,-2.098,-7.391,-2.098Z" /></g></g></g></g></g><g visibility="visible"><animate repeatCount="indefinite" begin="0s" calcMode="discrete" dur="4s" values="visible; hidden; hidden" keyTimes="0; 0.817; 1" attributeName="visibility" /><g transform="translate(92.243,114.085)"><g transform="scale(0,1)"><animateTransform repeatCount="indefinite" type="scale" attributeName="transform" dur="4s" begin="0s" calcMode="spline" values="0 1; 0 1; 1 1; 1 1" keyTimes="0; 0.466667; 0.5125; 1" keySplines="0 0 1 1; 0 0 1 1; 0 0 1 1" fill="freeze" /><g transform="translate(-0.364,-2.348)"><g transform="matrix(1,0,0,1,9.739,2.348)"><path fill="#3dd598" d="M-7.391,-2.098C-7.391,-2.098,7.391,-2.098,7.391,-2.098C8.549,-2.098,9.488,-1.158,9.488,0.001C9.488,1.159,8.549,2.098,7.391,2.098C7.391,2.098,-7.391,2.098,-7.391,2.098C-8.549,2.098,-9.488,1.159,-9.488,0.001C-9.488,-1.158,-8.549,-2.098,-7.391,-2.098Z" /></g></g></g></g></g><g visibility="visible"><animate repeatCount="indefinite" begin="0s" calcMode="discrete" dur="4s" values="visible; hidden; hidden" keyTimes="0; 0.817; 1" attributeName="visibility" /><g transform="translate(103.015,103.892)"><g transform="scale(0,1)"><animateTransform repeatCount="indefinite" type="scale" attributeName="transform" dur="4s" begin="0s" calcMode="spline" values="0 1; 0 1; 1 1; 1 1" keyTimes="0; 0.366667; 0.4125; 1" keySplines="0 0 1 1; 0 0 1 1; 0 0 1 1" fill="freeze" /><g transform="translate(-0.271,-2.347)"><g transform="matrix(1,0,0,1,25.709,2.347)"><path fill="#3dd598" d="M-23.361,-2.097C-23.361,-2.097,23.361,-2.097,23.361,-2.097C24.519,-2.097,25.458,-1.158,25.458,0C25.458,1.158,24.519,2.097,23.361,2.097C23.361,2.097,-23.361,2.097,-23.361,2.097C-24.519,2.097,-25.458,1.158,-25.458,0C-25.458,-1.158,-24.519,-2.097,-23.361,-2.097Z" /></g></g></g></g></g><g visibility="visible"><animate repeatCount="indefinite" begin="0s" calcMode="discrete" dur="4s" values="visible; hidden; hidden" keyTimes="0; 0.817; 1" attributeName="visibility" /><g transform="translate(92.233,103.892)"><g transform="scale(0,1)"><animateTransform repeatCount="indefinite" type="scale" attributeName="transform" dur="4s" begin="0s" calcMode="spline" values="0 1; 0 1; 1 1; 1 1" keyTimes="0; 0.266667; 0.3125; 1" keySplines="0 0 1 1; 0 0 1 1; 0 0 1 1" fill="freeze" /><g transform="translate(-0.353,-2.347)"><g transform="matrix(1,0,0,1,4.478,2.347)"><path fill="#3dd598" d="M-2.131,-2.097C-2.131,-2.097,2.131,-2.097,2.131,-2.097C3.289,-2.097,4.228,-1.158,4.228,0C4.228,1.158,3.289,2.097,2.131,2.097C2.131,2.097,-2.131,2.097,-2.131,2.097C-3.289,2.097,-4.228,1.158,-4.228,0C-4.228,-1.158,-3.289,-2.097,-2.131,-2.097Z" /></g></g></g></g></g><g visibility="visible"><animate repeatCount="indefinite" begin="0s" calcMode="discrete" dur="4s" values="visible; hidden; hidden" keyTimes="0; 0.817; 1" attributeName="visibility" /><g transform="translate(117.958,95.384)"><g transform="scale(0,1)"><animateTransform repeatCount="indefinite" type="scale" attributeName="transform" dur="4s" begin="0s" calcMode="spline" values="0 1; 0 1; 1 1; 1 1" keyTimes="0; 0.166667; 0.2125; 1" keySplines="0 0 1 1; 0 0 1 1; 0 0 1 1" fill="freeze" /><g transform="translate(-0.271,-2.472)"><g transform="matrix(1,0,0,1,25.708,2.347)"><path fill="#3dd598" d="M-23.361,-2.097C-23.361,-2.097,23.36,-2.097,23.36,-2.097C24.518,-2.097,25.458,-1.158,25.458,0C25.458,1.158,24.518,2.097,23.36,2.097C23.36,2.097,-23.361,2.097,-23.361,2.097C-24.519,2.097,-25.458,1.158,-25.458,0C-25.458,-1.158,-24.519,-2.097,-23.361,-2.097Z" /></g></g></g></g></g><g visibility="visible"><animate repeatCount="indefinite" begin="0s" calcMode="discrete" dur="4s" values="visible; hidden; hidden" keyTimes="0; 0.817; 1" attributeName="visibility" /><g transform="translate(107.546,95.259)"><g transform="scale(0,1)"><animateTransform repeatCount="indefinite" type="scale" attributeName="transform" dur="4s" begin="0s" calcMode="spline" values="0 1; 0 1; 1 1; 1 1" keyTimes="0; 0.0625; 0.108333; 1" keySplines="0 0 1 1; 0 0 1 1; 0 0 1 1" fill="freeze" /><g transform="translate(-0.728,-2.347)"><g transform="matrix(1,0,0,1,4.478,2.347)"><path fill="#3dd598" d="M-2.131,-2.097C-2.131,-2.097,2.131,-2.097,2.131,-2.097C3.289,-2.097,4.228,-1.158,4.228,0C4.228,1.158,3.289,2.097,2.131,2.097C2.131,2.097,-2.131,2.097,-2.131,2.097C-3.289,2.097,-4.228,1.158,-4.228,0C-4.228,-1.158,-3.289,-2.097,-2.131,-2.097Z" /></g></g></g></g></g><g visibility="visible"><animate repeatCount="indefinite" begin="0s" calcMode="discrete" dur="4s" values="visible; hidden; hidden" keyTimes="0; 0.817; 1" attributeName="visibility" /><g transform="translate(92.171,95.384)"><g transform="scale(0,1)"><animateTransform repeatCount="indefinite" type="scale" attributeName="transform" dur="4s" begin="0s" calcMode="spline" values="0 1; 1 1; 1 1" keyTimes="0; 0.045833; 1" keySplines="0 0 1 1; 0 0 1 1" fill="freeze" /><g transform="translate(-0.291,-2.472)"><g transform="matrix(1,0,0,1,6.666,2.347)"><path fill="#3dd598" d="M-4.319,-2.097C-4.319,-2.097,4.319,-2.097,4.319,-2.097C5.477,-2.097,6.416,-1.158,6.416,0C6.416,1.158,5.477,2.097,4.319,2.097C4.319,2.097,-4.319,2.097,-4.319,2.097C-5.477,2.097,-6.416,1.158,-6.416,0C-6.416,-1.158,-5.477,-2.097,-4.319,-2.097Z" /></g></g></g></g></g><g transform="matrix(1,0,0,1,47.843,170.857)" visibility="visible"><animate repeatCount="indefinite" begin="0s" calcMode="discrete" dur="4s" values="visible; hidden; hidden" keyTimes="0; 0.817; 1" attributeName="visibility" /><g transform="matrix(1,0,0,1,34.596,2.309)"><path fill="#00b5ce" d="M-7.266,-0.47C-6.272,-1.487,-4.913,-2.059,-3.492,-2.059C-3.492,-2.059,7.232,-2.059,7.232,-2.059C8.167,-2.059,8.639,-0.934,7.986,-0.266C7.986,-0.266,7.266,0.47,7.266,0.47C6.273,1.487,4.913,2.059,3.492,2.059C3.492,2.059,-7.23,2.059,-7.23,2.059C-8.165,2.059,-8.639,0.934,-7.986,0.266C-7.986,0.266,-7.266,-0.47,-7.266,-0.47Z" /></g><g transform="matrix(1,0,0,1,130.801,2.309)"><path fill="#00b5ce" d="M7.267,-0.47C6.274,-1.487,4.912,-2.059,3.491,-2.059C3.491,-2.059,-7.231,-2.059,-7.231,-2.059C-8.167,-2.059,-8.64,-0.934,-7.986,-0.266C-7.986,-0.266,-7.266,0.47,-7.266,0.47C-6.273,1.487,-4.912,2.059,-3.491,2.059C-3.491,2.059,7.232,2.059,7.232,2.059C8.165,2.059,8.64,0.934,7.987,0.266C7.987,0.266,7.267,-0.47,7.267,-0.47Z" /></g><g transform="matrix(1,0,0,1,48.453,25.359)"><path fill="#00b5ce" d="M-10.945,-2.935C-10.608,-3.776,-9.792,-4.327,-8.885,-4.327C-8.885,-4.327,10.577,-4.327,10.577,-4.327C12.147,-4.327,13.221,-2.742,12.637,-1.285C12.637,-1.285,10.945,2.935,10.945,2.935C10.608,3.776,9.793,4.327,8.887,4.327C8.887,4.327,-10.577,4.327,-10.577,4.327C-12.147,4.327,-13.22,2.741,-12.635,1.284C-12.635,1.284,-10.945,-2.935,-10.945,-2.935Z" /></g><g transform="matrix(1,0,0,1,29.89,35.509)"><path fill="#00b5ce" d="M-10.456,-3.147C-10.072,-3.873,-9.317,-4.327,-8.496,-4.327C-8.496,-4.327,10.729,-4.327,10.729,-4.327C12.399,-4.327,13.47,-2.548,12.689,-1.072C12.689,-1.072,10.457,3.146,10.457,3.146C10.072,3.873,9.318,4.327,8.497,4.327C8.497,4.327,-10.728,4.327,-10.728,4.327C-12.399,4.327,-13.47,2.548,-12.688,1.071C-12.688,1.071,-10.456,-3.147,-10.456,-3.147Z" /></g><g transform="matrix(1,0,0,1,171.994,35.509)"><path fill="#00b5ce" d="M10.456,-3.147C10.072,-3.873,9.317,-4.327,8.496,-4.327C8.496,-4.327,-10.729,-4.327,-10.729,-4.327C-12.4,-4.327,-13.47,-2.548,-12.689,-1.072C-12.689,-1.072,-10.457,3.146,-10.457,3.146C-10.072,3.873,-9.318,4.327,-8.496,4.327C-8.496,4.327,10.728,4.327,10.728,4.327C12.399,4.327,13.47,2.548,12.688,1.071C12.688,1.071,10.456,-3.147,10.456,-3.147Z" /></g><g transform="matrix(1,0,0,1,170.602,8.132)"><path fill="#00b5ce" d="M12.339,-2.025C11.925,-2.429,11.368,-2.655,10.79,-2.655C10.79,-2.655,-11.687,-2.655,-11.687,-2.655C-13.677,-2.655,-14.659,-0.239,-13.235,1.15C-13.235,1.15,-12.338,2.025,-12.338,2.025C-11.924,2.429,-11.368,2.655,-10.79,2.655C-10.79,2.655,11.688,2.655,11.688,2.655C13.677,2.655,14.658,0.238,13.234,-1.15C13.234,-1.15,12.339,-2.025,12.339,-2.025Z" /></g><g transform="matrix(1,0,0,1,114.691,25.359)"><path fill="#00b5ce" d="M10.944,-2.935C10.607,-3.776,9.793,-4.327,8.886,-4.327C8.886,-4.327,-10.577,-4.327,-10.577,-4.327C-12.147,-4.327,-13.22,-2.742,-12.636,-1.285C-12.636,-1.285,-10.944,2.935,-10.944,2.935C-10.607,3.776,-9.791,4.327,-8.885,4.327C-8.885,4.327,10.579,4.327,10.579,4.327C12.147,4.327,13.22,2.741,12.636,1.284C12.636,1.284,10.944,-2.935,10.944,-2.935Z" /></g><g transform="matrix(1,0,0,1,61.601,16.263)"><path fill="#00b5ce" d="M-9.385,-2.376C-9.028,-3.174,-8.236,-3.688,-7.362,-3.688C-7.362,-3.688,8.676,-3.688,8.676,-3.688C10.283,-3.688,11.357,-2.031,10.701,-0.564C10.701,-0.564,9.385,2.376,9.385,2.376C9.028,3.175,8.235,3.688,7.361,3.688C7.361,3.688,-8.676,3.688,-8.676,3.688C-10.283,3.688,-11.357,2.032,-10.7,0.564C-10.7,0.564,-9.385,-2.376,-9.385,-2.376Z" /></g><g transform="matrix(1,0,0,1,121.595,16.263)"><path fill="#00b5ce" d="M9.386,-2.376C9.029,-3.174,8.236,-3.688,7.361,-3.688C7.361,-3.688,-8.676,-3.688,-8.676,-3.688C-10.282,-3.688,-11.356,-2.031,-10.7,-0.564C-10.7,-0.564,-9.385,2.376,-9.385,2.376C-9.028,3.175,-8.235,3.688,-7.361,3.688C-7.361,3.688,8.676,3.688,8.676,3.688C10.282,3.688,11.356,2.032,10.699,0.564C10.699,0.564,9.386,-2.376,9.386,-2.376Z" /></g><g transform="matrix(1,0,0,1,14.094,25.36)"><path fill="#00b5ce" d="M-9.389,-3.479C-8.969,-4.014,-8.326,-4.327,-7.645,-4.327C-7.645,-4.327,10.958,-4.327,10.958,-4.327C12.808,-4.327,13.844,-2.195,12.701,-0.74C12.701,-0.74,9.389,3.479,9.389,3.479C8.969,4.014,8.325,4.327,7.645,4.327C7.645,4.327,-10.958,4.327,-10.958,4.327C-12.808,4.327,-13.845,2.195,-12.702,0.74C-12.702,0.74,-9.389,-3.479,-9.389,-3.479Z" /></g><g transform="matrix(1,0,0,1,145.446,25.36)"><path fill="#00b5ce" d="M9.388,-3.479C8.968,-4.014,8.326,-4.327,7.644,-4.327C7.644,-4.327,-10.958,-4.327,-10.958,-4.327C-12.808,-4.327,-13.844,-2.195,-12.702,-0.74C-12.702,-0.74,-9.388,3.479,-9.388,3.479C-8.968,4.014,-8.326,4.327,-7.645,4.327C-7.645,4.327,10.958,4.327,10.958,4.327C12.808,4.327,13.844,2.195,12.702,0.74C12.702,0.74,9.388,-3.479,9.388,-3.479Z" /></g><g transform="matrix(1,0,0,1,31.721,15.8)"><path fill="#00b5ce" d="M-7.011,-2.881C-6.592,-3.327,-6.008,-3.579,-5.396,-3.579C-5.396,-3.579,8.019,-3.579,8.019,-3.579C9.87,-3.579,10.906,-1.447,9.763,0.008C9.763,0.008,7.625,2.73,7.625,2.73C7.205,3.265,6.562,3.579,5.881,3.579C5.881,3.579,-7.959,3.579,-7.959,3.579C-9.903,3.579,-10.906,1.256,-9.574,-0.159C-9.574,-0.159,-7.011,-2.881,-7.011,-2.881Z" /></g><g transform="matrix(1,0,0,1,152.303,15.8)"><path fill="#00b5ce" d="M7.011,-2.881C6.592,-3.327,6.008,-3.579,5.397,-3.579C5.397,-3.579,-8.019,-3.579,-8.019,-3.579C-9.869,-3.579,-10.906,-1.447,-9.763,0.008C-9.763,0.008,-7.625,2.73,-7.625,2.73C-7.204,3.265,-6.561,3.579,-5.882,3.579C-5.882,3.579,7.959,3.579,7.959,3.579C9.903,3.579,10.906,1.256,9.574,-0.159C9.574,-0.159,7.011,-2.881,7.011,-2.881Z" /></g><g transform="matrix(1,0,0,1,26.63,8.295)"><path fill="#00b5ce" d="M-7.116,-2.353C-6.696,-2.888,-6.053,-3.199,-5.372,-3.199C-5.372,-3.199,6.915,-3.199,6.915,-3.199C8.765,-3.199,9.802,-1.068,8.659,0.387C8.659,0.387,7.116,2.352,7.116,2.352C6.696,2.887,6.053,3.199,5.372,3.199C5.372,3.199,-6.915,3.199,-6.915,3.199C-8.765,3.199,-9.802,1.066,-8.659,-0.389C-8.659,-0.389,-7.116,-2.353,-7.116,-2.353Z" /></g></g><g transform="matrix(1,0,0,1,100.344,202.239)" visibility="visible"><animate repeatCount="indefinite" begin="0s" calcMode="discrete" dur="4s" values="visible; hidden; hidden" keyTimes="0; 0.817; 1" attributeName="visibility" /><g transform="matrix(1,0,0,1,48.701,4.127)"><path fill="#00b5ce" d="M-48.222,2.43C-48.222,2.43,-46.447,-3.107,-46.447,-3.107C-46.3,-3.566,-45.873,-3.877,-45.391,-3.877C-45.391,-3.877,44.979,-3.877,44.979,-3.877C45.436,-3.877,45.845,-3.597,46.011,-3.171C46.011,-3.171,48.168,2.367,48.168,2.367C48.451,3.092,47.915,3.877,47.135,3.877C47.135,3.877,-47.166,3.877,-47.166,3.877C-47.918,3.877,-48.451,3.145,-48.222,2.43Z"><animate repeatCount="indefinite" attributeName="fill" dur="4s" begin="0s" fill="freeze" values="#00b5ce; #00b5ce; #ff4400; #00b5ce; #00b5ce; #ff4400; #00b5ce; #00b5ce" keyTimes="0; 0.054167; 0.091667; 0.129167; 0.329167; 0.366667; 0.404167; 1" keySplines="0 0 1 1; 0 0 1 1; 0 0 1 1; 0 0 1 1; 0 0 1 1; 0 0 1 1; 0 0 1 1" calcMode="spline" /></path></g></g><g transform="matrix(1,0,0,1,115.776,192.057)" visibility="visible"><animate repeatCount="indefinite" begin="0s" calcMode="discrete" dur="4s" values="visible; hidden; hidden" keyTimes="0; 0.817; 1" attributeName="visibility" /><g transform="matrix(1,0,0,1,12.155,4.226)"><path fill="#00b5ce" d="M-11.591,2.431C-11.591,2.431,-9.816,-3.106,-9.816,-3.106C-9.669,-3.565,-9.242,-3.877,-8.76,-3.877C-8.76,-3.877,9.206,-3.877,9.206,-3.877C9.717,-3.877,10.16,-3.528,10.283,-3.033C10.283,-3.033,11.648,2.504,11.648,2.504C11.821,3.202,11.292,3.877,10.572,3.877C10.572,3.877,-10.535,3.877,-10.535,3.877C-11.287,3.877,-11.82,3.147,-11.591,2.431Z"><animate repeatCount="indefinite" attributeName="fill" dur="4s" begin="0s" fill="freeze" values="#00b5ce; #00b5ce; #ff4400; #00b5ce; #00b5ce; #ff4400; #00b5ce; #00b5ce; #ff4400; #00b5ce; #00b5ce" keyTimes="0; 0.075; 0.1125; 0.15; 0.3625; 0.4; 0.4375; 0.55; 0.5875; 0.625; 1" keySplines="0 0 1 1; 0 0 1 1; 0 0 1 1; 0 0 1 1; 0 0 1 1; 0 0 1 1; 0 0 1 1; 0 0 1 1; 0 0 1 1; 0 0 1 1" calcMode="spline" /></path></g></g><g transform="matrix(1,0,0,1,128.656,183.601)" visibility="visible"><animate repeatCount="indefinite" begin="0s" calcMode="discrete" dur="4s" values="visible; hidden; hidden" keyTimes="0; 0.817; 1" attributeName="visibility" /><g transform="matrix(1,0,0,1,10.388,3.18)"><path fill="#00b5ce" d="M-9.873,1.44C-9.873,1.44,-8.539,-2.203,-8.539,-2.203C-8.379,-2.64,-7.963,-2.93,-7.498,-2.93C-7.498,-2.93,7.846,-2.93,7.846,-2.93C8.342,-2.93,8.778,-2.6,8.913,-2.122C8.913,-2.122,9.939,1.521,9.939,1.521C10.138,2.228,9.607,2.93,8.872,2.93C8.872,2.93,-8.832,2.93,-8.832,2.93C-9.602,2.93,-10.138,2.165,-9.873,1.44Z" /></g></g><g transform="matrix(1,0,0,1,121.284,176.521)" visibility="visible"><animate repeatCount="indefinite" begin="0s" calcMode="discrete" dur="4s" values="visible; hidden; hidden" keyTimes="0; 0.817; 1" attributeName="visibility" /><g transform="matrix(1,0,0,1,9.543,2.63)"><path fill="#00b5ce" d="M-8.989,0.845C-8.989,0.845,-7.931,-1.697,-7.931,-1.697C-7.76,-2.111,-7.356,-2.38,-6.907,-2.38C-6.907,-2.38,7.194,-2.38,7.194,-2.38C7.677,-2.38,8.103,-2.068,8.25,-1.609C8.25,-1.609,9.064,0.933,9.064,0.933C9.293,1.649,8.759,2.38,8.008,2.38C8.008,2.38,-7.966,2.38,-7.966,2.38C-8.757,2.38,-9.293,1.575,-8.989,0.845Z"><animate repeatCount="indefinite" attributeName="fill" dur="4s" begin="0s" fill="freeze" values="#00b5ce; #00b5ce; #ff4400; #00b5ce; #00b5ce; #ff4400; #00b5ce; #00b5ce" keyTimes="0; 0.158333; 0.195833; 0.233333; 0.425; 0.4625; 0.5; 1" keySplines="0 0 1 1; 0 0 1 1; 0 0 1 1; 0 0 1 1; 0 0 1 1; 0 0 1 1; 0 0 1 1" calcMode="spline" /></path></g></g><g transform="matrix(1,0,0,1,120.919,171.776)" visibility="visible"><animate repeatCount="indefinite" begin="0s" calcMode="discrete" dur="4s" values="visible; hidden; hidden" keyTimes="0; 0.817; 1" attributeName="visibility" /><g transform="matrix(1,0,0,1,9.142,1.849)"><path fill="#00b5ce" d="M7.476,-1.385C7.232,-1.526,6.956,-1.599,6.675,-1.599C6.675,-1.599,-6.674,-1.599,-6.674,-1.599C-8.311,-1.599,-8.892,0.567,-7.475,1.385C-7.232,1.526,-6.956,1.599,-6.674,1.599C-6.674,1.599,6.675,1.599,6.675,1.599C8.311,1.599,8.892,-0.567,7.476,-1.385Z"><animate repeatCount="indefinite" attributeName="fill" dur="4s" begin="0s" fill="freeze" values="#00b5ce; #00b5ce; #ff4400; #00b5ce; #00b5ce; #ff4400; #00b5ce; #00b5ce" keyTimes="0; 0.120833; 0.158333; 0.195833; 0.475; 0.5125; 0.55; 1" keySplines="0 0 1 1; 0 0 1 1; 0 0 1 1; 0 0 1 1; 0 0 1 1; 0 0 1 1; 0 0 1 1" calcMode="spline" /></path></g></g><g transform="matrix(1,0,0,1,212.419,184.654)" visibility="visible"><animate repeatCount="indefinite" begin="0s" calcMode="discrete" dur="4s" values="visible; hidden; hidden" keyTimes="0; 0.817; 1" attributeName="visibility" /><g transform="matrix(1,0,0,1,17.59,7.187)"><path fill="#00b5ce" d="M5.264,-6.937C5.264,-6.937,-9.917,-6.937,-9.917,-6.937C-10.868,-6.937,-11.378,-5.819,-10.755,-5.101C-10.755,-5.101,-7.878,-1.787,-7.878,-1.787C-7.255,-1.068,-7.764,0.048,-8.715,0.048C-8.715,0.048,-15.927,0.048,-15.927,0.048C-16.811,0.048,-17.34,1.033,-16.851,1.77C-16.851,1.77,-13.759,6.44,-13.759,6.44C-13.554,6.75,-13.208,6.937,-12.836,6.937C-12.836,6.937,15.871,6.937,15.871,6.937C16.834,6.937,17.34,5.793,16.692,5.081C16.692,5.081,6.083,-6.575,6.083,-6.575C5.873,-6.805,5.576,-6.937,5.264,-6.937Z"><animate repeatCount="indefinite" attributeName="fill" dur="4s" begin="0s" fill="freeze" values="#00b5ce; #00b5ce; #ff4400; #00b5ce; #00b5ce; #ff4400; #00b5ce; #00b5ce" keyTimes="0; 0.391667; 0.429167; 0.466666; 0.9; 0.9375; 0.975; 1" keySplines="0 0 1 1; 0 0 1 1; 0 0 1 1; 0 0 1 1; 0 0 1 1; 0 0 1 1; 0 0 1 1" calcMode="spline" /></path></g></g><g transform="matrix(1,0,0,1,217.84,171.421)" visibility="visible"><animate repeatCount="indefinite" begin="0s" calcMode="discrete" dur="4s" values="visible; hidden; hidden" keyTimes="0; 0.817; 1" attributeName="visibility" /><g transform="matrix(1,0,0,1,5.524,1.849)"><path fill="#00b5ce" d="M4.318,-1.094C4.016,-1.417,3.593,-1.6,3.15,-1.6C3.15,-1.6,-3.15,-1.6,-3.15,-1.6C-4.549,-1.6,-5.274,0.071,-4.318,1.094C-4.015,1.416,-3.591,1.6,-3.15,1.6C-3.15,1.6,3.15,1.6,3.15,1.6C4.55,1.6,5.275,-0.072,4.318,-1.094Z" /></g></g><g transform="matrix(1,0,0,1,195.13,171.42)" visibility="visible"><animate repeatCount="indefinite" begin="0s" calcMode="discrete" dur="4s" values="visible; hidden; hidden" keyTimes="0; 0.817; 1" attributeName="visibility" /><g transform="matrix(1,0,0,1,9.142,1.85)"><path fill="#00b5ce" d="M7.476,-1.385C7.232,-1.526,6.955,-1.6,6.675,-1.6C6.675,-1.6,-6.674,-1.6,-6.674,-1.6C-8.311,-1.6,-8.892,0.567,-7.475,1.387C-7.232,1.526,-6.956,1.6,-6.674,1.6C-6.674,1.6,6.675,1.6,6.675,1.6C8.311,1.6,8.892,-0.567,7.476,-1.385Z" /></g></g><g transform="matrix(1,0,0,1,145.532,171.42)" visibility="visible"><animate repeatCount="indefinite" begin="0s" calcMode="discrete" dur="4s" values="visible; hidden; hidden" keyTimes="0; 0.817; 1" attributeName="visibility" /><g transform="matrix(1,0,0,1,9.142,1.85)"><path fill="#00b5ce" d="M7.475,-1.385C7.232,-1.526,6.955,-1.6,6.673,-1.6C6.673,-1.6,-6.675,-1.6,-6.675,-1.6C-8.312,-1.6,-8.892,0.567,-7.476,1.387C-7.233,1.526,-6.957,1.6,-6.675,1.6C-6.675,1.6,6.673,1.6,6.673,1.6C8.311,1.6,8.892,-0.567,7.475,-1.385Z" /></g></g><g transform="matrix(1,0,0,1,95.64,171.776)" visibility="visible"><animate repeatCount="indefinite" begin="0s" calcMode="discrete" dur="4s" values="visible; hidden; hidden" keyTimes="0; 0.817; 1" attributeName="visibility" /><g transform="matrix(1,0,0,1,9.143,1.849)"><path fill="#00b5ce" d="M-7.475,-1.385C-7.231,-1.526,-6.955,-1.599,-6.674,-1.599C-6.674,-1.599,6.674,-1.599,6.674,-1.599C8.311,-1.599,8.893,0.567,7.476,1.385C7.233,1.526,6.955,1.599,6.674,1.599C6.674,1.599,-6.674,1.599,-6.674,1.599C-8.31,1.599,-8.892,-0.567,-7.475,-1.385Z" /></g></g><g transform="matrix(1,0,0,1,148.299,175.701)" visibility="visible"><animate repeatCount="indefinite" begin="0s" calcMode="discrete" dur="4s" values="visible; hidden; hidden" keyTimes="0; 0.817; 1" attributeName="visibility" /><g transform="matrix(1,0,0,1,10.052,3.45)"><path fill="#00b5ce" d="M7.116,-2.353C6.695,-2.888,6.053,-3.199,5.372,-3.199C5.372,-3.199,-6.915,-3.199,-6.915,-3.199C-8.766,-3.199,-9.802,-1.068,-8.659,0.387C-8.659,0.387,-7.116,2.352,-7.116,2.352C-6.696,2.887,-6.054,3.199,-5.373,3.199C-5.373,3.199,6.914,3.199,6.914,3.199C8.765,3.199,9.802,1.066,8.658,-0.389C8.658,-0.389,7.116,-2.353,7.116,-2.353Z" /></g></g><g transform="matrix(1,0,0,1,92.68,175.701)" visibility="visible"><animate repeatCount="indefinite" begin="0s" calcMode="discrete" dur="4s" values="visible; hidden; hidden" keyTimes="0; 0.817; 1" attributeName="visibility" /><g transform="matrix(1,0,0,1,10.052,3.45)"><path fill="#00b5ce" d="M-7.115,-2.353C-6.695,-2.888,-6.053,-3.199,-5.372,-3.199C-5.372,-3.199,6.915,-3.199,6.915,-3.199C8.765,-3.199,9.802,-1.068,8.66,0.387C8.66,0.387,7.117,2.352,7.117,2.352C6.697,2.887,6.053,3.199,5.372,3.199C5.372,3.199,-6.915,3.199,-6.915,3.199C-8.765,3.199,-9.802,1.066,-8.658,-0.389C-8.658,-0.389,-7.115,-2.353,-7.115,-2.353Z"><animate repeatCount="indefinite" attributeName="fill" dur="4s" begin="0s" fill="freeze" values="#00b5ce; #00b5ce; #ff4400; #00b5ce; #00b5ce" keyTimes="0; 0.125; 0.1625; 0.2; 1" keySplines="0 0 1 1; 0 0 1 1; 0 0 1 1; 0 0 1 1" calcMode="spline" /></path></g></g><g transform="matrix(1,0,0,1,176.558,175.701)" visibility="visible"><animate repeatCount="indefinite" begin="0s" calcMode="discrete" dur="4s" values="visible; hidden; hidden" keyTimes="0; 0.817; 1" attributeName="visibility" /><g transform="matrix(1,0,0,1,10.052,3.45)"><path fill="#00b5ce" d="M7.116,-2.353C6.696,-2.888,6.054,-3.199,5.374,-3.199C5.374,-3.199,-6.915,-3.199,-6.915,-3.199C-8.766,-3.199,-9.803,-1.068,-8.659,0.387C-8.659,0.387,-7.116,2.352,-7.116,2.352C-6.697,2.887,-6.054,3.199,-5.372,3.199C-5.372,3.199,6.915,3.199,6.915,3.199C8.764,3.199,9.803,1.066,8.659,-0.389C8.659,-0.389,7.116,-2.353,7.116,-2.353Z"><animate repeatCount="indefinite" attributeName="fill" dur="4s" begin="0s" fill="freeze" values="#00b5ce; #00b5ce; #ff4400; #00b5ce; #00b5ce; #ff4400; #00b5ce; #00b5ce; #ff4400; #00b5ce; #00b5ce" keyTimes="0; 0.204167; 0.241667; 0.279167; 0.475; 0.5125; 0.55; 0.675; 0.7125; 0.75; 1" keySplines="0 0 1 1; 0 0 1 1; 0 0 1 1; 0 0 1 1; 0 0 1 1; 0 0 1 1; 0 0 1 1; 0 0 1 1; 0 0 1 1; 0 0 1 1" calcMode="spline" /></path></g></g></g></g></g></g></g></g><g visibility="hidden" id="i74"><animate repeatCount="indefinite" begin="0s" calcMode="discrete" dur="4s" values="hidden; visible; hidden; hidden" keyTimes="0; 0.208; 0.279; 1" attributeName="visibility" /><animate repeatCount="indefinite" attributeName="opacity" dur="4s" begin="0s" fill="freeze" values="1; 1; 0; 0" keyTimes="0; 0.241667; 0.275; 1" keySplines="0 0 1 1; 0 0 1 1; 0 0 1 1" calcMode="spline" /><g transform="translate(76.175,24.925)"><g transform="scale(0,0)"><animateTransform repeatCount="indefinite" type="scale" attributeName="transform" dur="4s" begin="0s" calcMode="spline" values="0 0; 0 0; 1 1; 1 1" keyTimes="0; 0.208333; 0.241667; 1" keySplines="0 0 1 1; 0 0 1 1; 0 0 1 1" fill="freeze" /><g transform="translate(-8.119,-7.474)"><g id="i6" transform="matrix(1,0,0,1,8.119,7.474)"><path fill="#fc5a5a" d="M5.103,-6.927C4.578,-7.128,4.018,-7.224,3.456,-7.208C2.894,-7.193,2.34,-7.067,1.827,-6.838C1.313,-6.609,0.849,-6.28,0.462,-5.872C0.075,-5.463,-0.227,-4.983,-0.428,-4.457C-0.428,-4.457,-0.844,-3.367,-0.844,-3.367C-0.844,-3.367,-1.935,-3.784,-1.935,-3.784C-2.996,-4.19,-4.173,-4.158,-5.21,-3.695C-6.247,-3.232,-7.059,-2.376,-7.464,-1.315C-7.87,-0.254,-7.837,0.925,-7.374,1.962C-6.911,2.999,-6.056,3.809,-4.995,4.215C-4.995,4.215,1.363,6.647,1.363,6.647C2.873,7.224,4.563,6.469,5.141,4.96C5.141,4.96,7.572,-1.397,7.572,-1.397C7.773,-1.923,7.87,-2.482,7.854,-3.045C7.839,-3.607,7.712,-4.16,7.482,-4.674C7.253,-5.187,6.926,-5.651,6.518,-6.037C6.109,-6.424,5.628,-6.726,5.103,-6.927Z" /></g></g></g></g></g><g visibility="hidden" id="i75"><animate repeatCount="indefinite" begin="0s" calcMode="discrete" dur="4s" values="hidden; visible; visible" keyTimes="0; 0.688; 1" attributeName="visibility" /><g transform="translate(156,126)"><g transform="scale(0,0)"><animateTransform repeatCount="indefinite" type="scale" attributeName="transform" dur="4s" begin="0s" calcMode="spline" values="0 0; 0 0; 1.2 1.2; 1 1; 1 1" keyTimes="0; 0.6875; 0.75; 0.775; 1" keySplines="0 0 1 1; 0 0 1 1; 0 0 1 1; 0 0 1 1" fill="freeze" /><g transform="translate(2,27)"><g id="i76" transform="matrix(1,0,0,1,-3.91,-27.91)"><ellipse ry="60.09" rx="60.09" cy="0" cx="0" fill="#3dd598" /></g><g id="i77"><path d="" /></g></g></g></g></g><g transform="matrix(1,0,0,1,208.5,225)" visibility="hidden" id="i78"><animate repeatCount="indefinite" begin="0s" calcMode="discrete" dur="4s" values="hidden; visible; visible" keyTimes="0; 0.742; 1" attributeName="visibility" /><g id="i77" transform="matrix(0.658,-0.051,0.051,0.658,-11.6,-35.24)"><path stroke-linejoin="round" stroke-linecap="round" stroke-width="20" stroke="#ffffff" d="M-90.5,-105.5C-90.5,-105.5,-75,-78.5,-75,-78.5C-75,-78.5,-17.5,-115,-17.5,-115" /></g></g></svg>